<svg xmlns="http://www.w3.org/2000/svg" xmlns:xlink="http://www.w3.org/1999/xlink" version="1.1" x="0px" y="0px" viewBox="0 0 262.502 332.88" style="enable-background:new 0 0 262.502 266.304;" xml:space="preserve"><g><path d="M57.373,104.093c2.136,1.615,4.543,2.876,7.134,3.708c2.838,0.911,5.893,1.311,9.047,1.084   c1.948-0.14,3.822-0.514,5.604-1.083c2.612-0.835,5.017-2.1,7.141-3.708c1.38-1.045,2.644-2.231,3.766-3.541   c3.964-4.631,6.179-10.763,5.706-17.324c-0.951-13.221-12.439-23.166-25.658-22.215C56.894,61.963,46.946,73.452,47.898,86.67   c0.38,5.297,2.455,10.065,5.653,13.82C54.69,101.829,55.973,103.036,57.373,104.093z M57.513,93.114c0,0,3.877,3.228,5.879-1.5   c1.866-4.4,7.651-1.961,8.441-1.603c0.79-0.358,6.576-2.798,8.441,1.603c2.002,4.728,5.879,1.5,5.879,1.5s0.465,5.611-6.191,5.096   c-4.124-0.318-6.736-1.868-8.129-3.002c-1.393,1.134-4.005,2.684-8.129,3.002C57.048,98.725,57.513,93.114,57.513,93.114z"/><path d="M254.586,57.804c-3.564,0.432-6.104,3.669-5.671,7.232c0.407,3.385,0.586,6.361,0.586,8.954   c-0.011,8.941-2.115,12.977-3.824,14.753c-0.886,0.924-1.777,1.451-2.837,1.829c-1.052,0.371-2.278,0.545-3.535,0.543   c-1.595,0.005-3.207-0.28-4.354-0.575c-0.138-0.035-0.269-0.069-0.393-0.104l-0.024-0.146c0,0-0.982-0.492-2.925-1.117   l-0.248,0.413l-5.975,9.946l-8.142,13.555l-3.034-11.701l8.719-14.116c-2.959-0.412-6.465-0.702-10.564-0.702   c-4.099,0-7.604,0.29-10.563,0.702l8.719,14.116l-3.034,11.701l-8.977-14.945l-4.936-8.217l-0.452-0.752   c-0.888,0.286-1.575,0.543-2.057,0.738c-0.226,0.043-0.45,0.097-0.675,0.165c-0.266,0.092-5.21,1.568-10.576,4.634   c-2.686,1.553-5.513,3.488-7.947,6.184c-2.396,2.646-4.546,6.396-4.548,10.982c-0.009,2.588,0.72,5.234,2.028,7.641   c0.009,0.017,0.017,0.033,0.025,0.05c2.007,3.648,5.174,6.849,9.605,10.028c0.563,0.401,1.147,0.803,1.754,1.204   c4.187,2.771,9.435,5.545,16.044,8.416c0.843,0.366,1.722,0.54,2.586,0.54c2.511,0,4.901-1.464,5.966-3.912   c1.43-3.293-0.081-7.121-3.374-8.551c-8.788-3.803-14.486-7.297-17.726-10.067c-0.192-0.165-0.379-0.328-0.555-0.487   c-1.572-1.412-2.448-2.586-2.88-3.385c-0.087-0.164-0.147-0.299-0.205-0.431c-0.229-0.525-0.262-0.83-0.269-1.046   c-0.002-0.4,0.156-1.088,1.221-2.297c1.134-1.313,3.229-2.768,5.389-3.957c-0.654,2.923-1.385,6.102-2.17,9.394   c0.084,0.078,0.16,0.152,0.25,0.233c1.989,1.809,6.925,5.528,17.74,10.208c2.083,0.904,3.688,2.564,4.521,4.678   c0.834,2.112,0.795,4.422-0.11,6.504c-1.35,3.107-4.411,5.115-7.799,5.115c-1.171,0-2.31-0.237-3.386-0.706   c-6.347-2.759-11.542-5.468-15.808-8.234c-1.87,6.601-3.81,12.563-5.637,16.607c-2.86,6.333-7.528,10.967-12.05,14.235   c-0.916-0.944-2.046-1.708-3.365-2.189c-7.781-2.843-14.294-7.469-20.167-13.154c-8.82-8.513-15.875-19.336-22.962-28.727   c-3.58-4.696-7.166-9.079-11.537-12.677c-3.306-2.736-7.394-5.087-12.08-6.021c-0.285,0.366-0.578,0.727-0.884,1.08   c-0.847,0.978-1.755,1.883-2.718,2.712c-2.842,2.449-6.156,4.23-9.746,5.255c-1.72,0.491-3.501,0.813-5.327,0.943   c-0.627,0.045-1.264,0.068-1.891,0.068c-2.479,0-4.883-0.358-7.165-1.02c-3.608-1.047-6.909-2.86-9.703-5.259   c-1.409-1.209-2.688-2.568-3.814-4.051c-4.577,0.338-9.265,1.222-13.897,2.889c-9.28,3.292-18.185,9.943-24.68,20.373   C6.01,134.308,1.693,148.233,0.037,166.649c-0.445,4.951,3.208,9.325,8.16,9.769c0.273,0.024,0.544,0.036,0.814,0.036   c4.608,0,8.536-3.52,8.955-8.196c1.045-11.634,3.227-20.544,6.028-27.343c-0.003,0.212-0.017,0.419-0.017,0.633   c0,16.775-3.774,38.883,10.013,51.933c-3.831,11.503-8.294,29.071-12.327,55.579c-1.24,8.189,4.398,15.834,12.588,17.074   c0.76,0.115,1.515,0.171,2.26,0.171c7.295,0,13.691-5.33,14.814-12.761c3.661-24.245,7.666-39.913,10.775-49.493   c3.009,0.274,6.246,0.419,9.733,0.419c3.485,0,6.721-0.145,9.728-0.418c3.108,9.581,7.126,25.236,10.779,49.492   c1.123,7.43,7.521,12.76,14.814,12.76c0.746,0,1.5-0.056,2.26-0.17c8.189-1.238,13.828-8.883,12.59-17.072   c-4.033-26.51-8.497-44.078-12.327-55.582c10.437-9.879,10.813-24.945,10.376-38.963c0.025,0.028,0.049,0.058,0.074,0.086   c8.259,9.413,18.731,18.63,32.82,23.775c1.018,0.371,2.06,0.547,3.083,0.547c2.895,0.001,5.632-1.421,7.322-3.804l26.764,9.534   c0.324,2.667,0.534,5.633,0.535,8.936c-0.011,13.646-3.416,32.854-16.469,57.673c-2.573,4.888-0.697,10.935,4.19,13.508   c1.485,0.783,3.08,1.154,4.65,1.154c3.594,0,7.067-1.943,8.858-5.344c14.394-27.312,18.784-49.938,18.77-66.991   c0-0.55-0.008-1.089-0.017-1.626l5.567,1.982c0.728,4.763,1.211,10.334,1.216,16.751c0,11.457-1.543,25.629-6.054,42.694   c-1.413,5.339,1.77,10.813,7.109,12.226c0.856,0.227,1.717,0.335,2.562,0.335c4.429,0,8.478-2.963,9.664-7.446   c4.924-18.624,6.72-34.546,6.72-47.809c0.002-3.267-0.11-6.36-0.307-9.302l16.919,6.027l-17.217-103.425   c0.792,0.068,1.621,0.113,2.489,0.118c2.391,0,5.076-0.309,7.839-1.276c4.144-1.406,8.4-4.557,11.145-9.462   c2.779-4.896,4.207-11.218,4.213-19.387c-0.002-3.189-0.221-6.68-0.684-10.515C261.385,59.913,258.148,57.372,254.586,57.804z    M67.816,116.016h4.018h4.016l2.008,7.924l-0.307,0.484c-1.656,1.379-3.682,2.07-5.719,2.07c-2.038,0-4.062-0.69-5.716-2.069   l-0.308-0.485L67.816,116.016z M61.794,157.272l5.675-28.425c1.402,0.541,2.883,0.82,4.362,0.819h0.002h0.008   c1.477,0,2.954-0.279,4.354-0.82l5.677,28.426l-10.039,12.682L61.794,157.272z"/><path d="M149.314,37.651c-0.015,0.648,0.389,1.233,0.999,1.451l18.917,6.7l-10.493,11.029c-0.432,0.452-0.535,1.124-0.263,1.686   c0.253,0.522,0.776,0.847,1.348,0.847c0.046,0,0.092-0.002,0.138-0.006l15.508-1.411c0.825-0.076,1.432-0.805,1.357-1.631   c-0.076-0.823-0.805-1.432-1.628-1.356l-0.002-0.002l-11.537,1.05l9.34-9.813c0.349-0.367,0.49-0.89,0.372-1.381   c-0.118-0.495-0.481-0.899-0.959-1.066l-16.773-5.943l16.506-4.953c0.47-0.142,0.841-0.502,0.993-0.969   c0.154-0.467,0.067-0.981-0.229-1.371l-9.458-12.527l16.667,3.847c0.499,0.113,1.018-0.032,1.384-0.389   c0.367-0.356,0.525-0.871,0.425-1.373l-2.955-14.563l14.32,12.362c0.347,0.302,0.819,0.427,1.271,0.336   c0.452-0.089,0.841-0.385,1.048-0.796l4.999-9.932l3.306,10.413c0.249,0.79,1.092,1.229,1.884,0.978   c0.79-0.251,1.228-1.094,0.977-1.884l-4.419-13.922c-0.186-0.582-0.701-0.994-1.31-1.043c-0.61-0.047-1.185,0.274-1.46,0.821   l-5.791,11.501L177.609,0.365c-0.488-0.42-1.183-0.483-1.738-0.158c-0.556,0.325-0.841,0.964-0.712,1.593l3.362,16.583   l-18.416-4.248c-0.614-0.142-1.255,0.116-1.597,0.644c-0.342,0.528-0.319,1.217,0.062,1.722l10.646,14.099l-18.832,5.651   C149.762,36.437,149.33,37.004,149.314,37.651z"/><ellipse transform="matrix(0.2268 -0.9739 0.9739 0.2268 105.7309 252.9916)" cx="212.202" cy="59.906" rx="21.495" ry="21.495"/></g></svg>