<svg xmlns="http://www.w3.org/2000/svg" xmlns:xlink="http://www.w3.org/1999/xlink" xml:space="preserve" version="1.1" style="shape-rendering:geometricPrecision;text-rendering:geometricPrecision;image-rendering:optimizeQuality;" viewBox="0 0 847 1058.75" x="0px" y="0px" fill-rule="evenodd" clip-rule="evenodd"><defs><style type="text/css">
   
    .fil0 {fill:black}
   
  </style></defs><g><path class="fil0" d="M208 503l-1 -94c37,-91 58,-166 82,-165l268 0c25,-1 46,74 83,165l-1 94c-2,12 -10,17 -21,17l-389 0c-11,0 -19,-5 -21,-17zm343 26l63 0 0 62c0,6 -5,11 -11,11l-41 0c-6,0 -11,-5 -11,-11l0 -62zm-320 0l63 0 0 62c0,6 -5,11 -11,11l-41 0c-6,0 -11,-5 -11,-11l0 -62zm352 -128c18,0 33,14 33,32 0,18 -15,32 -33,32 -18,0 -32,-14 -32,-32 0,-18 14,-32 32,-32zm-320 0c18,0 32,14 32,32 0,18 -14,32 -32,32 -18,0 -32,-14 -32,-32 0,-18 14,-32 32,-32zm33 -135l255 1 39 96 -334 0 40 -97z"/></g><text x="0" y="862" fill="#000000" font-size="5px" font-weight="bold" font-family="'Helvetica Neue', Helvetica, Arial-Unicode, Arial, Sans-serif">Created by Fathul Qorib Icon</text><text x="0" y="867" fill="#000000" font-size="5px" font-weight="bold" font-family="'Helvetica Neue', Helvetica, Arial-Unicode, Arial, Sans-serif">from the Noun Project</text></svg>