<svg xmlns="http://www.w3.org/2000/svg" data-name="Layer 1" viewBox="0 0 32 40" x="0px" y="0px"><title>Artboard 3 copy 7</title><path d="M25.6,23.87a.52.52,0,0,0,.71,0l1.56-1.57a.5.5,0,0,0,0-.71.5.5,0,0,0-.7,0L25.6,23.16A.51.51,0,0,0,25.6,23.87Zm-7.1-6.38a1.52,1.52,0,0,0,.44,1.06,1.52,1.52,0,0,0,2.12,0l5-5a1.51,1.51,0,0,0,0-2.12A1.46,1.46,0,0,0,25,11h0a1.19,1.19,0,0,0-.33,0,2.57,2.57,0,0,0-.73-1.73L19.65,5.11a2.55,2.55,0,0,0-1.75-.73A1.48,1.48,0,0,0,15.4,3l-5,5a1.5,1.5,0,0,0,0,2.12,1.53,1.53,0,0,0,1.06.44,1.28,1.28,0,0,0,.34-.07,2.43,2.43,0,0,0,.73,1.75l.69.7L2,23.49a1.49,1.49,0,0,0-.47,1.07A1.46,1.46,0,0,0,2,25.64L3.36,27h0a1.52,1.52,0,0,0,1.06.44h0A1.49,1.49,0,0,0,5.51,27L16.12,15.73l.7.69a2.43,2.43,0,0,0,1.72.73A1.86,1.86,0,0,0,18.5,17.49Zm6.1-5.31A.5.5,0,0,1,25,12h0a.5.5,0,0,1,.35.85l-4.95,4.95a.5.5,0,0,1-.7,0h0a.49.49,0,0,1-.15-.35.49.49,0,0,1,.15-.36l.7-.7h0l1.77-1.76Zm-12-3.53-.7.7a.5.5,0,0,1-.71,0h0a.48.48,0,0,1,0-.7L16.11,3.7a.5.5,0,0,1,.35-.15.51.51,0,0,1,.36.15.5.5,0,0,1,0,.7l-.71.71h0L12.58,8.65ZM4.79,26.29a.5.5,0,0,1-.36.16.46.46,0,0,1-.36-.15L2.7,24.93a.49.49,0,0,1-.15-.36.5.5,0,0,1,.16-.36L14,13.59,15.41,15ZM17.53,15.72l-4.25-4.24a1.52,1.52,0,0,1,0-2.13l3.54-3.53a1.49,1.49,0,0,1,1.06-.44,1.51,1.51,0,0,1,1.06.44l4.24,4.24a1.49,1.49,0,0,1,0,2.12L21.41,14l-1.76,1.77A1.54,1.54,0,0,1,17.53,15.72ZM30,27.09V26.5A1.5,1.5,0,0,0,28.5,25h-9A1.5,1.5,0,0,0,18,26.5v.59a1.51,1.51,0,0,0-1,1.41v2a.5.5,0,0,0,.5.5h13a.5.5,0,0,0,.5-.5v-2A1.51,1.51,0,0,0,30,27.09ZM30,30H18V28.5a.5.5,0,0,1,.5-.5h8a.5.5,0,0,0,0-1H19v-.5a.5.5,0,0,1,.5-.5h9a.5.5,0,0,1,.5.5V27h-.5a.5.5,0,0,0,0,1h1a.5.5,0,0,1,.5.5Zm-6.5-9.51V22.7a.5.5,0,1,0,1,0V20.49a.5.5,0,1,0-1,0Zm-3.37,1.1a.5.5,0,0,0,0,.71l1.56,1.57a.52.52,0,0,0,.71,0,.51.51,0,0,0,0-.71l-1.57-1.57A.5.5,0,0,0,20.13,21.59Z"/><text x="0" y="47" fill="#000000" font-size="5px" font-weight="bold" font-family="'Helvetica Neue', Helvetica, Arial-Unicode, Arial, Sans-serif">Created by Chameleon Design</text><text x="0" y="52" fill="#000000" font-size="5px" font-weight="bold" font-family="'Helvetica Neue', Helvetica, Arial-Unicode, Arial, Sans-serif">from the Noun Project</text></svg>