<svg xmlns="http://www.w3.org/2000/svg" xmlns:xlink="http://www.w3.org/1999/xlink" version="1.1" x="0px" y="0px" viewBox="0 0 50.4 63" enable-background="new 0 0 50.4 50.4" xml:space="preserve"><g><polygon points="18.578,30.817 21.426,45.382 31.58,45.382 34.428,30.817 32.258,30.817 29.771,43.098 23.232,43.098    20.749,30.817  "/><g><path d="M39.552,11.627c-0.619-0.617-0.926-1.373-0.926-2.259c0-0.858,0.315-1.594,0.947-2.214    c0.634-0.617,1.385-0.926,2.258-0.926c0.876,0,1.619,0.31,2.238,0.926c0.618,0.619,0.927,1.355,0.927,2.214    c0,0.886-0.309,1.642-0.927,2.259c-0.619,0.62-1.362,0.928-2.238,0.928C40.927,12.558,40.169,12.247,39.552,11.627L39.552,11.627z    "/><path d="M50.372,27.304c0,0.953-0.403,1.671-1.217,1.671c-0.847,0-1.42-0.718-1.42-1.671v-9.466h-1.474v25.738    c0,0.504-0.176,0.933-0.521,1.282c-0.345,0.349-0.774,0.523-1.286,0.523c-0.481,0-0.895-0.175-1.244-0.523    c-0.345-0.35-0.521-0.778-0.521-1.282v-14.94h-1.624v14.94c0,0.504-0.176,0.933-0.523,1.282c-0.344,0.349-0.774,0.523-1.286,0.523    c-0.48,0-0.895-0.175-1.243-0.523c-0.346-0.35-0.52-0.778-0.52-1.282V18.531l-1.937,3.633c-0.302,0.478-0.678,0.714-1.129,0.714    h-5.484c-0.934,0-1.399-0.588-1.399-1.235c0-0.727,0.466-1.236,1.399-1.236h4.575l2.575-5.089c0.78-1.236,1.927-1.857,3.434-1.857    h6.281c1.236,0,2.303,0.429,3.208,1.286l0,0c0.905,0.855,1.355,1.823,1.355,2.9V27.304z"/></g><path d="M28.488,31.586c-0.039-0.331-0.123-0.658-0.276-0.967c-0.35-0.706-0.953-1.234-1.7-1.485   c-1.51-0.515-3.231,0.343-3.742,1.847c-0.47,1.391,0.163,2.884,1.418,3.548c0.04,0.332,0.124,0.66,0.278,0.969   c0.35,0.706,0.953,1.233,1.697,1.483c0.308,0.105,0.627,0.158,0.95,0.158c1.266,0,2.389-0.807,2.795-2.006   C30.378,33.743,29.743,32.251,28.488,31.586z M23.92,31.37c0.239-0.707,0.9-1.18,1.644-1.18c0.188,0,0.376,0.031,0.559,0.094   c0.439,0.147,0.795,0.458,1.001,0.874c0.015,0.028,0.011,0.062,0.024,0.092c-1.208-0.004-2.357,0.743-2.793,1.902   C23.9,32.698,23.701,32.019,23.92,31.37z M27.213,32.463c-0.003,0.007,0,0.016-0.003,0.023c-0.248,0.737-0.988,1.179-1.745,1.144   v-0.002c0.239-0.706,0.901-1.183,1.648-1.183C27.146,32.445,27.179,32.461,27.213,32.463z M28.759,34.743   c-0.303,0.886-1.306,1.397-2.206,1.088c-0.438-0.147-0.792-0.458-0.998-0.873c-0.013-0.025-0.011-0.056-0.022-0.081   c0.011,0,0.022,0.005,0.034,0.005c1.236,0,2.324-0.775,2.751-1.928C28.776,33.408,28.979,34.093,28.759,34.743z"/><polygon points="25.617,27.386 24.75,27.386 24.75,23.337 25.617,23.337 25.617,27.386  "/><polygon points="23.594,28.397 22.727,28.397 22.727,25.071 23.594,25.071 23.594,28.397  "/><polygon points="29.664,29.554 28.797,29.554 28.797,25.938 29.664,25.938 29.664,29.554  "/><g><ellipse cx="9.755" cy="9.418" rx="3.234" ry="3.205"/><path d="M23.657,19.784c0,0-8.541-5.472-8.565-5.485c-1.324-0.72-2.395-0.698-2.395-0.698H6.596c0,0-2.968-0.111-3.985,3.432    l-2.548,8.865c-0.239,0.828,0.219,1.461,0.944,1.672c0.722,0.204,1.462-0.16,1.651-0.824l2.475-8.638l1.207-0.001L2.581,32.18    h3.593v11.796c0,0.786,0.776,1.425,1.562,1.425c0.784,0,1.282-0.637,1.282-1.425V32.18h1.681v11.796    c0,0.786,0.639,1.425,1.424,1.425c0.786,0,1.423-0.637,1.423-1.425V32.18h3.495l-2.828-14.102l0.721-0.6l7.221,4.64    c0.232,0.151,0.492,0.223,0.749,0.223c0.456,0,0.903-0.228,1.169-0.639C24.489,21.057,24.302,20.199,23.657,19.784z"/></g></g><text x="0" y="65.4" fill="#000000" font-size="5px" font-weight="bold" font-family="'Helvetica Neue', Helvetica, Arial-Unicode, Arial, Sans-serif">Created by Luis Prado</text><text x="0" y="70.4" fill="#000000" font-size="5px" font-weight="bold" font-family="'Helvetica Neue', Helvetica, Arial-Unicode, Arial, Sans-serif">from the Noun Project</text></svg>