<svg xmlns="http://www.w3.org/2000/svg" xmlns:xlink="http://www.w3.org/1999/xlink" version="1.1" x="0px" y="0px" viewBox="0 0 64 80" enable-background="new 0 0 64 64" xml:space="preserve"><g><path d="M32,7C18.215,7,7,18.215,7,32c0,13.45,10.677,24.447,24,24.975V46c0-2.757-2.243-5-5-5s-5-2.243-5-5V24.414l-2.293,2.293   c-0.391,0.391-1.023,0.391-1.414,0s-0.391-1.023,0-1.414l4-4c0.391-0.391,1.023-0.391,1.414,0l4,4c0.391,0.391,0.391,1.023,0,1.414   C26.512,26.902,26.256,27,26,27s-0.512-0.098-0.707-0.293L23,24.414V36c0,1.654,1.346,3,3,3c2.548,0,4.775,1.373,6,3.413   C33.225,40.373,35.452,39,38,39c1.654,0,3-1.346,3-3V24.414l-2.293,2.293c-0.391,0.391-1.023,0.391-1.414,0s-0.391-1.023,0-1.414   l4-4c0.391-0.391,1.023-0.391,1.414,0l4,4c0.391,0.391,0.391,1.023,0,1.414C46.512,26.902,46.256,27,46,27   s-0.512-0.098-0.707-0.293L43,24.414V36c0,2.757-2.243,5-5,5s-5,2.243-5,5v10.975C46.322,56.447,57,45.45,57,32   C57,18.215,45.785,7,32,7z"/></g></svg>