<?xml version="1.0" encoding="utf-8"?>
<!-- Generator: Adobe Illustrator 23.0.2, SVG Export Plug-In . SVG Version: 6.00 Build 0)  -->
<svg version="1.1" id="Calque_1" xmlns="http://www.w3.org/2000/svg" xmlns:xlink="http://www.w3.org/1999/xlink" x="0px" y="0px"
	 viewBox="0 0 501 415.1" style="enable-background:new 0 0 501 415.1;" xml:space="preserve">
<style type="text/css">
	.st0{clip-path:url(#SVGID_2_);}
	.st1{fill:url(#SVGID_3_);}
	.st2{fill:url(#SVGID_4_);}
	.st3{fill:#FFFFFF;}
	.st4{fill:url(#SVGID_5_);}
	.st5{fill:url(#SVGID_6_);}
	.st6{fill:url(#SVGID_7_);}
	.st7{clip-path:url(#SVGID_9_);}
	.st8{fill:url(#SVGID_10_);}
	.st9{fill:url(#SVGID_11_);}
	.st10{fill:url(#SVGID_12_);}
	.st11{fill:url(#SVGID_13_);}
	.st12{fill:#0F3986;}
	.st13{fill:url(#SVGID_14_);}
	.st14{fill:url(#SVGID_15_);}
	.st15{fill:#001F74;}
	.st16{fill:url(#SVGID_16_);}
	.st17{fill:#377DFF;}
	.st18{fill:url(#SVGID_17_);}
	.st19{fill:url(#SVGID_18_);}
	.st20{opacity:0.5;fill:url(#SVGID_19_);enable-background:new    ;}
	.st21{opacity:0.5;fill:url(#SVGID_20_);enable-background:new    ;}
	.st22{fill:none;}
	.st23{fill:url(#SVGID_21_);}
	.st24{fill:url(#SVGID_22_);}
	.st25{fill:url(#SVGID_23_);}
	.st26{fill:url(#SVGID_24_);}
	.st27{fill:url(#SVGID_25_);}
	.st28{fill:url(#SVGID_26_);}
	.st29{fill:url(#SVGID_27_);}
	.st30{fill:url(#SVGID_28_);}
	.st31{fill:url(#SVGID_29_);}
	.st32{fill-rule:evenodd;clip-rule:evenodd;fill:url(#Base_2_);}
	.st33{fill:url(#SVGID_30_);}
	.st34{fill:url(#SVGID_31_);}
	.st35{fill:#A6A6A6;}
	.st36{fill:url(#SVGID_32_);}
	.st37{fill:url(#SVGID_33_);}
	.st38{fill:#00E68C;}
	.st39{fill:url(#SVGID_34_);}
	.st40{fill:url(#SVGID_35_);}
	.st41{fill:#FF8F00;}
	.st42{fill:#424242;}
	.st43{fill:#FA5046;}
	.st44{fill:url(#SVGID_36_);}
	.st45{fill:url(#SVGID_37_);}
	.st46{fill:#FFB92D;}
	.st47{fill:url(#SVGID_38_);}
	.st48{fill:url(#SVGID_39_);}
	.st49{fill:url(#SVGID_40_);}
	.st50{fill:url(#SVGID_41_);}
	.st51{fill:url(#SVGID_42_);}
	.st52{fill:url(#SVGID_43_);}
	.st53{fill:url(#SVGID_44_);}
	.st54{fill:url(#SVGID_45_);}
	.st55{fill:url(#SVGID_46_);}
	.st56{fill:url(#SVGID_47_);}
</style>
<g>
	<g>
		<defs>
			<path id="SVGID_1_" d="M455.9,130.6h-31.8c-4.3,0-7.8-2.8-7.8-6.3c0-3.4,3.5-6.3,7.8-6.3h3.1c6,0,11-4,11-8.7c0-4.8-5-8.7-11-8.7
				h-24.9l7.8-7.8h28.7c6,0,11-4,11-8.7c0-4.8-5-8.7-11-8.7h-11.2L475,28L462,0L328.7,0.4c-1-0.3-2.2-0.4-3.3-0.4h-137
				c-1.7,0-3.2,0.3-4.6,0.9l-47,0.1L92.9,22l8.6,8.6c-8.1,3.2-13.7,9.8-13.7,17.6c0,10.6,10.9,19.5,24.2,19.5h1.1
				c2.7,0,4.8,1.8,4.8,3.9s-2.2,3.9-4.8,3.9H53c-6,0-11,4-11,8.7c0,4.8,5,8.7,11,8.7h32.4c2.7,0,4.8,1.8,4.8,3.9s-2.2,3.9-4.8,3.9
				h-2.7c-6,0-11,4-11,8.7c0,4.8,5,8.7,11,8.7h2.2v0.1c3.5,0.6,6.1,3.2,6.1,6.3c0,3.5-3.5,6.4-7.9,6.4H56.7
				c-21.7,2-38.9,16.9-38.9,35v0.5c0,18,17.1,33,38.9,35h6.9c0.8,0,1.5,0.1,2.4,0.2h1.8l-0.1,0.5c3.5,1.2,6,4.1,6,7.3
				c0,4.4-4.5,8-10,8H24.6c-13.3,0-24.2,8.7-24.2,19.5c0,10.6,10.9,19.4,24.2,19.4h6.9c5,0,9,3.2,9,7.2c0,3.9-4,7.2-9,7.2H13.8
				c-6,0-11,4-11,8.7c0,4.8,5,8.7,11,8.7h31.7c4.3,0,7.8,2.8,7.8,6.3c0,3.4-3.5,6.3-7.8,6.3h-7.6v0.1c-5.2,0.6-9.3,4.3-9.3,8.7
				c0,4.8,5,8.7,11,8.7h90c2.4,0,4.4,1.5,4.4,3.5c0,1.9-2,3.5-4.4,3.5H115c-13.3,0-24.2,8.7-24.2,19.5c0,10.6,10.9,19.5,24.2,19.5
				h64.8c4.7,0,8.5,3.1,8.5,6.9s-3.9,6.9-8.5,6.9h-11.9c-6,0-11,4-11,8.7c0,4.8,5,8.7,11,8.7h57.6c3.4,0,6.1,2.2,6.1,5
				c0,2.5-2.4,4.5-5.3,4.8v0.1h-2.5c-3.3,0-6.1,2.2-6.1,4.8c0,2.7,2.7,4.8,6.1,4.8h102.6c3.3,0,6.1-2.2,6.1-4.8
				c0-2.7-2.7-4.8-6.1-4.8h-7.1c-3.4,0-6.1-2.2-6.1-5c0-2.7,2.7-5,6.1-5h87.4c6,0,11-4,11-8.7c0-4.8-5-8.7-11-8.7h-26.6
				c-4.7,0-8.5-3.1-8.5-6.9s3.9-6.9,8.5-6.9h51.6c13.3,0,24.2-8.7,24.2-19.5c0-10.6-10.9-19.5-24.2-19.5h-11.8
				c-2.4,0-4.4-1.5-4.4-3.5c0-1.9,2-3.5,4.4-3.5h30.6c6,0,11-4,11-8.7s-5-8.7-11-8.7h-8.7l-9.4-0.1c-3.8-0.5-6.6-3.1-6.6-6.1
				c0-3.4,3.5-6.3,7.8-6.3h11.2c6,0,11-4,11-8.7s-4.6-8.6-10.5-8.7c-4.7-0.1-8.6-3.3-8.6-7.2c0-3.9,4-7.2,9-7.2h11.8
				c13.3,0,24.2-8.7,24.2-19.5c0-10.6-10.9-19.5-24.2-19.5h-27.4c-5.6,0-10-3.7-10-8c0-4.4,4.5-8,10-8h30.8
				c21.7-2,38.9-16.9,38.9-35v-0.5C499.6,146.4,479.8,130.6,455.9,130.6z"/>
		</defs>
		<clipPath id="SVGID_2_">
			<use xlink:href="#SVGID_1_"  style="overflow:visible;"/>
		</clipPath>
		<g class="st0">
			<g>
				
					<linearGradient id="SVGID_3_" gradientUnits="userSpaceOnUse" x1="249.8" y1="1201.4904" x2="249.8" y2="908.8923" gradientTransform="matrix(1 0 0 1 0.3 -696.1)">
					<stop  offset="0" style="stop-color:#377DFF"/>
					<stop  offset="9.066635e-02" style="stop-color:#5590FE"/>
					<stop  offset="0.2505" style="stop-color:#85AFFD"/>
					<stop  offset="0.4101" style="stop-color:#ACC8FB"/>
					<stop  offset="0.5665" style="stop-color:#CBDCFA"/>
					<stop  offset="0.719" style="stop-color:#E0EAFA"/>
					<stop  offset="0.8656" style="stop-color:#EEF2F9"/>
					<stop  offset="1" style="stop-color:#F2F5F9"/>
				</linearGradient>
				<path class="st1" d="M455.9,130.6h-31.8c-4.3,0-7.8-2.8-7.8-6.3c0-3.4,3.5-6.3,7.8-6.3h3.1c6,0,11-4,11-8.7c0-4.8-5-8.7-11-8.7
					h-25.9L304.9,197l-16.3,47.7l-24.2-52.8L102.2,30.2c-8.5,3-14.4,9.9-14.4,17.8c0,10.6,10.9,19.5,24.2,19.5h1.1
					c2.7,0,4.8,1.8,4.8,3.9s-2.2,3.9-4.8,3.9H53c-6,0-11,4-11,8.7c0,4.8,5,8.7,11,8.7h32.4c2.7,0,4.8,1.8,4.8,3.9s-2.2,3.9-4.8,3.9
					h-2.7c-6,0-11,4-11,8.7c0,4.8,5,8.7,11,8.7h2.2v0.1c3.5,0.6,6.1,3.2,6.1,6.3c0,3.5-3.5,6.4-7.9,6.4H56.7
					c-21.7,2-38.9,16.9-38.9,35v0.5c0,18,17.1,33,38.9,35h6.9c0.8,0,1.5,0.1,2.4,0.2h1.8l-0.1,0.5c3.5,1.2,6,4.1,6,7.3
					c0,4.4-4.5,8-10,8H24.6c-13.3,0-24.2,8.7-24.2,19.5c0,10.6,10.9,19.4,24.2,19.4h6.9c5,0,9,3.2,9,7.2c0,3.9-4,7.2-9,7.2H13.8
					c-6,0-11,4-11,8.7c0,4.8,5,8.7,11,8.7h31.7c4.3,0,7.8,2.8,7.8,6.3c0,3.4-3.5,6.3-7.8,6.3h-7.6v0.1c-5.2,0.6-9.3,4.3-9.3,8.7
					c0,4.8,5,8.7,11,8.7h90c2.4,0,4.4,1.5,4.4,3.5c0,1.9-2,3.5-4.4,3.5H115c-13.3,0-24.2,8.7-24.2,19.5c0,10.6,10.9,19.5,24.2,19.5
					h64.8c4.7,0,8.5,3.1,8.5,6.9s-3.9,6.9-8.5,6.9h-11.9c-6,0-11,4-11,8.7c0,4.8,5,8.7,11,8.7h57.6c3.4,0,6.1,2.2,6.1,5
					c0,2.5-2.4,4.5-5.3,4.8v0.1h-2.5c-3.3,0-6.1,2.2-6.1,4.8c0,2.7,2.7,4.8,6.1,4.8h102.6c3.3,0,6.1-2.2,6.1-4.8
					c0-2.7-2.7-4.8-6.1-4.8h-7.1c-3.4,0-6.1-2.2-6.1-5c0-2.7,2.7-5,6.1-5h87.4c6,0,11-4,11-8.7c0-4.8-5-8.7-11-8.7h-26.6
					c-4.7,0-8.5-3.1-8.5-6.9s3.9-6.9,8.5-6.9h51.6c13.3,0,24.2-8.7,24.2-19.5c0-10.6-10.9-19.5-24.2-19.5h-11.8
					c-2.4,0-4.4-1.5-4.4-3.5c0-1.9,2-3.5,4.4-3.5h30.6c6,0,11-4,11-8.7s-5-8.7-11-8.7h-8.7l-9.4-0.1c-3.8-0.5-6.6-3.1-6.6-6.1
					c0-3.4,3.5-6.3,7.8-6.3h11.2c6,0,11-4,11-8.7s-4.6-8.6-10.5-8.7c-4.7-0.1-8.6-3.3-8.6-7.2c0-3.9,4-7.2,9-7.2h11.8
					c13.3,0,24.2-8.7,24.2-19.5c0-10.6-10.9-19.5-24.2-19.5h-27.4c-5.6,0-10-3.7-10-8c0-4.4,4.5-8,10-8h30.8
					c21.7-2,38.9-16.9,38.9-35v-0.5C499.6,146.4,479.8,130.6,455.9,130.6z"/>
				
					<linearGradient id="SVGID_4_" gradientUnits="userSpaceOnUse" x1="429.05" y1="1201.4904" x2="429.05" y2="992.077" gradientTransform="matrix(1 0 0 1 0.3 -696.1)">
					<stop  offset="0" style="stop-color:#377DFF"/>
					<stop  offset="1" style="stop-color:#EBF0FB"/>
				</linearGradient>
				<path class="st2" d="M438.7,92.8c6,0,11-4,11-8.7c0-4.8-5-8.7-11-8.7h-12.2L409,92.9h29.7V92.8z"/>
				<path class="st3" d="M380.6,96.7c0,2.1,2.1,3.9,4.8,3.9h15.8l7.8-7.8h-23.6C382.9,92.8,380.6,94.6,380.6,96.7z"/>
			</g>
			
				<linearGradient id="SVGID_5_" gradientUnits="userSpaceOnUse" x1="273.5" y1="130.6273" x2="273.5" y2="-41.9082" gradientTransform="matrix(1 0 0 -1 0 418)">
				<stop  offset="0" style="stop-color:#EBF0FB"/>
				<stop  offset="4.770680e-02" style="stop-color:#D6E3FB"/>
				<stop  offset="0.1711" style="stop-color:#A6C4FD"/>
				<stop  offset="0.2938" style="stop-color:#7EAAFD"/>
				<stop  offset="0.4137" style="stop-color:#5F97FE"/>
				<stop  offset="0.53" style="stop-color:#4988FF"/>
				<stop  offset="0.6411" style="stop-color:#3C80FF"/>
				<stop  offset="0.7412" style="stop-color:#377DFF"/>
			</linearGradient>
			<path class="st4" d="M90.9,344.7c0,10.6,10.9,19.5,24.2,19.5H180c4.7,0,8.5,3.1,8.5,6.9s-3.9,6.9-8.5,6.9h-12c-6,0-11,4-11,8.7
				c0,4.8,5,8.7,11,8.7h57.6c3.4,0,6.1,2.2,6.1,5c0,2.5-2.4,4.5-5.3,4.8v0.1H224c-3.3,0-6.1,2.2-6.1,4.8c0,2.7,2.7,4.8,6.1,4.8
				h102.6c3.3,0,6.1-2.2,6.1-4.8c0-2.7-2.7-4.8-6.1-4.8h-7.1c-3.4,0-6.1-2.2-6.1-5c0-2.7,2.7-5,6.1-5h87.4c6,0,11-4,11-8.7
				c0-4.8-5-8.7-11-8.7h-26.6c-4.7,0-8.5-3.1-8.5-6.9s3.9-6.9,8.5-6.9h51.6c13.3,0,24.2-8.7,24.2-19.5c0-1.6-0.2-3.1-0.7-4.6H91.6
				C91.1,341.6,90.9,343.2,90.9,344.7z"/>
			
				<linearGradient id="SVGID_6_" gradientUnits="userSpaceOnUse" x1="347.25" y1="1035.35" x2="347.25" y2="1063.45" gradientTransform="matrix(1 0 0 1 0.3 -696.1)">
				<stop  offset="0.2539" style="stop-color:#0F3986"/>
				<stop  offset="0.9267" style="stop-color:#0F3986;stop-opacity:0"/>
			</linearGradient>
			<path class="st5" d="M287.3,354.5h120.5v11.9H287.3V354.5z"/>
			
				<radialGradient id="SVGID_7_" cx="689.0093" cy="1220.8687" r="341.5042" gradientTransform="matrix(0.669 0 0 0.669 -173.43 -597.079)" gradientUnits="userSpaceOnUse">
				<stop  offset="0" style="stop-color:#0F3986"/>
				<stop  offset="0.1747" style="stop-color:#13387F;stop-opacity:0.7189"/>
				<stop  offset="0.6217" style="stop-color:#1B3671;stop-opacity:0"/>
			</radialGradient>
			<path class="st6" d="M287.5,65.7c-39.2,0-76.3,17.7-101,48.2l78.7,78.7l22.3,8.2l21.7-7.6l79.3-79.2
				C363.9,83.4,326.8,65.7,287.5,65.7z"/>
			<g>
				<g>
					<defs>
						<polyline id="SVGID_8_" points="501.1,1.3 287.5,214.9 73.8,1.3 						"/>
					</defs>
					<clipPath id="SVGID_9_">
						<use xlink:href="#SVGID_8_"  style="overflow:visible;"/>
					</clipPath>
					<g class="st7">
						
							<linearGradient id="SVGID_10_" gradientUnits="userSpaceOnUse" x1="339.8098" y1="320.3808" x2="328.5034" y2="315.2819" gradientTransform="matrix(1 0 0 -1 0 418)">
							<stop  offset="0" style="stop-color:#0F3986"/>
							<stop  offset="0.1824" style="stop-color:#1B4DAA"/>
							<stop  offset="0.4005" style="stop-color:#2762CF"/>
							<stop  offset="0.6041" style="stop-color:#3071E9"/>
							<stop  offset="0.7856" style="stop-color:#357AF9"/>
							<stop  offset="0.9267" style="stop-color:#377DFF"/>
						</linearGradient>
						<path class="st8" d="M332.4,93.8c2.5-0.6,5.3,1.7,6.2,5.3c0.9,3.5-0.4,6.9-3,7.5c-2.5,0.6-5.3-1.7-6.2-5.3
							S329.9,94.4,332.4,93.8z"/>
						
							<linearGradient id="SVGID_11_" gradientUnits="userSpaceOnUse" x1="365.8107" y1="318.4333" x2="372.6833" y2="317.1031" gradientTransform="matrix(1 0 0 -1 0 418)">
							<stop  offset="0" style="stop-color:#0F3986"/>
							<stop  offset="6.091627e-02" style="stop-color:#123E8F"/>
							<stop  offset="0.6548" style="stop-color:#2C6BDF"/>
							<stop  offset="0.9267" style="stop-color:#377DFF"/>
						</linearGradient>
						<path class="st9" d="M364.5,99.1c0.9-3.5,3.6-5.9,6.2-5.3c2.5,0.6,3.8,4,3,7.5c-0.9,3.5-3.6,5.9-6.2,5.3
							C365,106,363.7,102.6,364.5,99.1z"/>
						
							<linearGradient id="SVGID_12_" gradientUnits="userSpaceOnUse" x1="273.6632" y1="335.0097" x2="264.6846" y2="332.2386" gradientTransform="matrix(1 0 0 -1 0 418)">
							<stop  offset="0" style="stop-color:#0F3986"/>
							<stop  offset="3.906098e-03" style="stop-color:#0F3A87"/>
							<stop  offset="0.1315" style="stop-color:#1C4EAC"/>
							<stop  offset="0.264" style="stop-color:#255FCA"/>
							<stop  offset="0.4041" style="stop-color:#2D6CE1"/>
							<stop  offset="0.5533" style="stop-color:#3376F2"/>
							<stop  offset="0.7177" style="stop-color:#367BFC"/>
							<stop  offset="0.9267" style="stop-color:#377DFF"/>
						</linearGradient>
						<path class="st10" d="M267.4,78c2.5-0.6,5.3,1.7,6.2,5.3c0.9,3.5-0.4,6.9-3,7.5c-2.5,0.6-5.3-1.7-6.2-5.3S264.9,78.6,267.4,78
							z"/>
						
							<linearGradient id="SVGID_13_" gradientUnits="userSpaceOnUse" x1="303.0294" y1="334.4661" x2="310.7887" y2="332.5817" gradientTransform="matrix(1 0 0 -1 0 418)">
							<stop  offset="0" style="stop-color:#0F3986"/>
							<stop  offset="8.176832e-02" style="stop-color:#16449A"/>
							<stop  offset="0.2506" style="stop-color:#2259BE"/>
							<stop  offset="0.4206" style="stop-color:#2B69DB"/>
							<stop  offset="0.5902" style="stop-color:#3274EF"/>
							<stop  offset="0.759" style="stop-color:#367BFB"/>
							<stop  offset="0.9267" style="stop-color:#377DFF"/>
						</linearGradient>
						<path class="st11" d="M302,83.3c0.9-3.5,3.6-5.9,6.2-5.3c2.5,0.6,3.8,4,3,7.5s-3.6,5.9-6.2,5.3S301.1,86.9,302,83.3z"/>
						<path class="st12" d="M226.4,59.3h1.2c8.8,0,16,7.2,16,16v39.2c0,8.8-7.2,16-16,16h-1.2c-8.8,0-16-7.2-16-16V75.3
							C210.4,66.5,217.6,59.3,226.4,59.3z"/>
						<path class="st12" d="M210.4,107.6c0,5.6-2.1,11.2-6.7,11.2c0,0,1.8,7.4,21,7.4"/>
						<path class="st12" d="M243.6,107.6c0,5.6,2.1,11.2,6.7,11.2c0,0-1.8,7.4-21,7.4"/>
						
							<linearGradient id="SVGID_14_" gradientUnits="userSpaceOnUse" x1="216.063" y1="327.4987" x2="205.7217" y2="322.9436" gradientTransform="matrix(1 0 0 -1 0 418)">
							<stop  offset="0" style="stop-color:#0F3986"/>
							<stop  offset="5.044968e-02" style="stop-color:#16449A"/>
							<stop  offset="0.1432" style="stop-color:#2056B9"/>
							<stop  offset="0.245" style="stop-color:#2864D3"/>
							<stop  offset="0.3574" style="stop-color:#2F6FE7"/>
							<stop  offset="0.4861" style="stop-color:#3477F4"/>
							<stop  offset="0.6453" style="stop-color:#367CFD"/>
							<stop  offset="0.9267" style="stop-color:#377DFF"/>
						</linearGradient>
						<path class="st13" d="M208.7,86.6c2.5-0.6,5.3,1.7,6.2,5.3c0.9,3.5-0.4,6.9-3,7.5c-2.5,0.6-5.3-1.7-6.2-5.3
							C204.9,90.6,206.2,87.2,208.7,86.6z"/>
						
							<linearGradient id="SVGID_15_" gradientUnits="userSpaceOnUse" x1="238.1276" y1="325.087" x2="247.7968" y2="325.087" gradientTransform="matrix(1 0 0 -1 0 418)">
							<stop  offset="0" style="stop-color:#0F3986"/>
							<stop  offset="0.2059" style="stop-color:#1D51B0"/>
							<stop  offset="0.4105" style="stop-color:#2864D3"/>
							<stop  offset="0.6036" style="stop-color:#3072EB"/>
							<stop  offset="0.7807" style="stop-color:#357AFA"/>
							<stop  offset="0.9267" style="stop-color:#377DFF"/>
						</linearGradient>
						<path class="st14" d="M238.4,91.8c0.9-3.5,3.6-5.9,6.2-5.3c2.5,0.6,3.8,4,3,7.5c-0.9,3.5-3.6,5.9-6.2,5.3
							C238.8,98.7,237.5,95.4,238.4,91.8z"/>
						<path class="st15" d="M296.6,338.6h-7v-9.1c0-1.9,1.5-3.4,3.4-3.4h0.2c1.9,0,3.4,1.5,3.4,3.4V338.6z"/>
						<path class="st15" d="M289.5,329.4h7.1l20.7,9.2h-17.5l-10.3-4.6L289.5,329.4z"/>
						<path class="st15" d="M293.2,333H293c-1.9,0-3.4-1.5-3.4-3.4v-27.1c0-1.9,1.5-3.4,3.4-3.4h0.2c1.9,0,3.4,1.5,3.4,3.4v27.1
							C296.6,331.4,295,333,293.2,333z"/>
						<path class="st15" d="M279,338.6h7v-9.1c0-1.9-1.5-3.4-3.4-3.4h-0.2c-1.9,0-3.4,1.5-3.4,3.4V338.6z"/>
						<path class="st15" d="M286.1,329.4H279l-20.7,9.2h17.5l10.3-4.6L286.1,329.4z"/>
						<path class="st15" d="M282.4,333h0.2c1.9,0,3.4-1.5,3.4-3.4v-27.1c0-1.9-1.5-3.4-3.4-3.4h-0.2c-1.9,0-3.4,1.5-3.4,3.4v27.1
							C279,331.4,280.6,333,282.4,333z"/>
						<path class="st12" d="M259.1,304.6h57.4l-4.9-179c-0.1-5.4-4.3-9.7-9.4-9.7h-28.8c-5.1,0-9.3,4.3-9.4,9.7L259.1,304.6z"/>
						
							<linearGradient id="SVGID_16_" gradientUnits="userSpaceOnUse" x1="286.9637" y1="329.47" x2="288.6986" y2="298.9652" gradientTransform="matrix(1 0 0 -1 0 418)">
							<stop  offset="0" style="stop-color:#0F3986"/>
							<stop  offset="0.1375" style="stop-color:#123E8F"/>
							<stop  offset="0.3669" style="stop-color:#1B4DA9"/>
							<stop  offset="0.6579" style="stop-color:#2864D3"/>
							<stop  offset="0.9267" style="stop-color:#377DFF"/>
						</linearGradient>
						<path class="st16" d="M281.6,104.6h13.1v11.3h-13.1V104.6z"/>
						<path class="st17" d="M288.8,52.6h-1.2c-9,0-16.3,7.3-16.3,16.3v22.4c0,9,7.3,16.3,16.3,16.3h1.2c9,0,16.3-7.3,16.3-16.3V68.9
							C305.1,60,297.7,52.6,288.8,52.6z"/>
						<path class="st12" d="M295.1,94.8c-0.3,0.8-0.9,1.5-1.6,2s-1.5,0.9-2.3,1.2c-1.7,0.4-3.6,0.2-4.9-0.8c1.7,0.3,3.2,0.3,4.7-0.1
							C292.5,96.6,293.9,95.8,295.1,94.8L295.1,94.8z"/>
						<path class="st12" d="M290.8,87.4c-0.8,0.7-1.9,1.1-3,1.2s-2.2-0.2-3.2-0.8l-0.4-0.2l0.3-0.4c0.8-1.4,1.5-2.9,2.1-4.4
							c0.3-0.8,0.5-1.5,0.7-2.3s0.4-1.6,0.5-2.4c0.1,0.8,0.1,1.7,0,2.5s-0.2,1.7-0.5,2.5c-0.5,1.6-1.2,3.2-2.1,4.7l-0.1-0.6
							c0.8,0.5,1.7,0.8,2.7,0.9C288.8,88,289.8,87.8,290.8,87.4z"/>
						<path class="st12" d="M305.1,84.4c3.2-14.1,5.8-30.6,0.9-33.6s-7.9,1.6-7.9,1.6s-1.9-6.6-9.2-7.2c-6.6-0.5-12.3,2.6-15.9,8.1
							c-4.8,7.4-11.9,8.8-13.5,4.2c0,2.1,0,10.7,13.5,11.7c13.4,1,24.6-4.9,25.9-12.4c0.5,3.3,0.8,5.1,0.7,9.2
							c3.7,0.4,5,4.9,5.3,7.5C305,76.2,305.1,84.4,305.1,84.4z"/>
						<path class="st3" d="M284.3,157.1h7.8v-34.8l-3.9-3.8l-3.9,3.8V157.1z"/>
						<path class="st12" d="M271.3,84.4V68l-3.5-1.2L271.3,84.4z"/>
						<path class="st12" d="M300.9,74c0.2,1.3-0.2,2.7-1.2,3.7c-0.9,1-2.3,1.6-3.7,1.6s-2.8-0.6-3.7-1.6s-1.4-2.4-1.2-3.7
							c0.4,2.6,2.5,4.4,4.8,4.4C298.3,78.4,300.5,76.5,300.9,74L300.9,74z"/>
						<path class="st12" d="M284.4,74c0.2,1.3-0.2,2.7-1.2,3.7c-0.9,1-2.3,1.6-3.7,1.6s-2.8-0.6-3.7-1.6s-1.4-2.4-1.2-3.7
							c0.4,2.6,2.5,4.4,4.8,4.4C281.9,78.4,284.1,76.5,284.4,74L284.4,74z"/>
						<path class="st15" d="M304.1,141.3h-4c-1.4,0-2.6-1.2-2.6-2.6v-22.5c0-1.4,1.2-2.6,2.6-2.6h4c1.4,0,2.6,1.2,2.6,2.6v22.6
							C306.6,140.1,305.5,141.3,304.1,141.3z"/>
						<path class="st3" d="M297.5,137.6h9.1v4.4h-9.1V137.6z"/>
						<path class="st15" d="M225.2,204.7h-15.4l13.9,121.7h1.5V204.7z"/>
						<path class="st15" d="M244.2,204.7h-15.4v121.7h1.5L244.2,204.7z"/>
						<path class="st15" d="M225.2,338.6h-3.8v-3.3l-4.5,3.3h-11.3l18.1-12.2h1.5V338.6z"/>
						<path class="st15" d="M228.8,338.6h3.8v-3.3l4.5,3.3h11.3l-18.1-12.2h-1.5V338.6z"/>
						<path class="st12" d="M200.5,304.6h52.2l-4.4-170.9c-0.1-5.2-3.9-9.3-8.6-9.3h-26.2c-4.7,0-8.5,4.1-8.6,9.3L200.5,304.6z"/>
						
							<linearGradient id="SVGID_17_" gradientUnits="userSpaceOnUse" x1="227.0962" y1="310.7281" x2="226.9709" y2="294.695" gradientTransform="matrix(1 0 0 -1 0 418)">
							<stop  offset="0" style="stop-color:#0F3986"/>
							<stop  offset="0.1375" style="stop-color:#123E8F"/>
							<stop  offset="0.3669" style="stop-color:#1B4DA9"/>
							<stop  offset="0.6579" style="stop-color:#2864D3"/>
							<stop  offset="0.9267" style="stop-color:#377DFF"/>
						</linearGradient>
						<path class="st18" d="M222.1,114.8h9.7v9.6h-9.7V114.8z"/>
						<path class="st17" d="M227.5,61.2h-1.1c-8.1,0-14.6,6.5-14.6,14.6v25.8c0,8.1,6.5,14.6,14.6,14.6h1.1
							c8.1,0,14.6-6.5,14.6-14.6V75.8C242.1,67.7,235.6,61.2,227.5,61.2z"/>
						<path class="st12" d="M220.7,103.3c1.3,1.1,2.6,1.9,4.1,2.2c1.5,0.4,3.1,0.4,4.7,0.1c-1.4,1-3.3,1.3-4.9,0.8
							c-0.8-0.2-1.6-0.6-2.3-1.2C221.6,104.8,221,104.1,220.7,103.3L220.7,103.3z"/>
						<path class="st12" d="M228.3,97.3c-0.4,0.4-1,0.7-1.7,0.8s-1.4-0.1-1.9-0.4l-0.4-0.2l0.3-0.4c0.5-0.8,0.8-1.6,1.2-2.5
							s0.6-1.8,0.9-2.7c0.2,1,0.2,2-0.1,3c-0.2,1-0.7,1.9-1.2,2.7l-0.1-0.6C226,97.5,227.1,97.7,228.3,97.3L228.3,97.3z"/>
						<path class="st3" d="M223.1,165.6h7.8v-34.8L227,127l-3.9,3.8L223.1,165.6z"/>
						<path class="st12" d="M239,82.5c0.2,1.3-0.2,2.7-1.2,3.7c-0.9,1-2.3,1.6-3.7,1.6s-2.8-0.6-3.7-1.6s-1.4-2.4-1.2-3.7
							c0.4,2.6,2.5,4.4,4.8,4.4C236.4,86.9,238.6,85.1,239,82.5L239,82.5z"/>
						<path class="st12" d="M224,82.5c0.2,1.3-0.2,2.7-1.2,3.7c-0.9,1-2.3,1.6-3.7,1.6s-2.8-0.6-3.7-1.6s-1.4-2.4-1.2-3.7
							c0.4,2.6,2.5,4.4,4.8,4.4C221.4,86.9,223.6,85.1,224,82.5L224,82.5z"/>
						<path class="st15" d="M242.9,149.8h-4c-1.4,0-2.6-1.2-2.6-2.6v-22.6c0-1.4,1.2-2.6,2.6-2.6h4c1.4,0,2.6,1.2,2.6,2.6v22.6
							C245.4,148.7,244.3,149.8,242.9,149.8z"/>
						<path class="st3" d="M236.3,146.1h9.1v4.4h-9.1V146.1z"/>
						<path class="st12" d="M237,70.4c-8.5,8.5-15.9,9.6-25.1,9.6c-0.7-5-1.4-17.1,11.5-19.2s17.9,6.5,18.7,11.1s0.8,10.5,0,14.9
							C242.1,74.6,237,70.4,237,70.4L237,70.4z"/>
						<path class="st15" d="M360.3,338.6h-7v-9.1c0-1.9,1.5-3.4,3.4-3.4h0.2c1.9,0,3.4,1.5,3.4,3.4V338.6z"/>
						<path class="st15" d="M353.3,329.4h7l20.7,9.2h-17.5l-10.2-4.6V329.4z"/>
						<path class="st15" d="M356.9,333h-0.2c-1.9,0-3.4-1.5-3.4-3.4v-27.1c0-1.9,1.5-3.4,3.4-3.4h0.2c1.9,0,3.4,1.5,3.4,3.4v27.1
							C360.3,331.4,358.8,333,356.9,333z"/>
						<path class="st15" d="M342.8,338.6h7v-9.1c0-1.9-1.5-3.4-3.4-3.4h-0.2c-1.9,0-3.4,1.5-3.4,3.4V338.6z"/>
						<path class="st15" d="M349.8,329.4h-7l-20.7,9.2h17.5l10.2-4.6V329.4z"/>
						<path class="st15" d="M346.2,333h0.2c1.9,0,3.4-1.5,3.4-3.4v-27.1c0-1.9-1.5-3.4-3.4-3.4h-0.2c-1.9,0-3.4,1.5-3.4,3.4v27.1
							C342.8,331.4,344.3,333,346.2,333z"/>
						<path class="st12" d="M322.9,304.6h57.4l-4.9-164c-0.1-5-4.3-8.9-9.4-8.9h-28.8c-5.1,0-9.3,4-9.4,8.9L322.9,304.6z"/>
						
							<linearGradient id="SVGID_18_" gradientUnits="userSpaceOnUse" x1="350.3896" y1="308.1439" x2="352.3827" y2="287.216" gradientTransform="matrix(1 0 0 -1 0 418)">
							<stop  offset="0" style="stop-color:#0F3986"/>
							<stop  offset="0.1375" style="stop-color:#123E8F"/>
							<stop  offset="0.3669" style="stop-color:#1B4DA9"/>
							<stop  offset="0.6579" style="stop-color:#2864D3"/>
							<stop  offset="0.9267" style="stop-color:#377DFF"/>
						</linearGradient>
						<path class="st19" d="M345.4,121.8h13.1v9.9h-13.1V121.8z"/>
						<path class="st17" d="M352.5,68.4h-1.2c-9,0-16.3,7.3-16.3,16.3v22.4c0,9,7.3,16.3,16.3,16.3h1.2c9,0,16.3-7.3,16.3-16.3V84.7
							C368.8,75.7,361.5,68.4,352.5,68.4z"/>
						<path class="st12" d="M358.9,110.5c-0.3,0.8-0.9,1.5-1.6,2s-1.5,0.9-2.3,1.2c-1.7,0.4-3.6,0.2-4.9-0.8
							c1.7,0.3,3.2,0.3,4.7-0.1S357.6,111.6,358.9,110.5L358.9,110.5z"/>
						<path class="st12" d="M354.5,105c-0.7,0.8-1.8,1.4-3,1.5s-2.3-0.4-3.2-1.2l-0.2-0.2l0.1-0.3c0.8-2.1,1.5-4.3,2.1-6.5
							c0.3-1.1,0.5-2.2,0.7-3.4c0.2-1.1,0.4-2.3,0.5-3.4c0.1,1.2,0.2,2.3,0.1,3.5s-0.2,2.3-0.5,3.5c-0.5,2.3-1.2,4.6-2.2,6.7
							l-0.1-0.5c0.7,0.7,1.7,1.2,2.7,1.2C352.6,106,353.6,105.6,354.5,105L354.5,105z"/>
						<path class="st3" d="M348,172.8h7.8v-34.7l-3.9-3.9l-3.9,3.9V172.8z"/>
						<path class="st12" d="M335,100.2V83.8l-3.4-1.3L335,100.2z"/>
						<path class="st12" d="M364.6,89.7c0.2,1.3-0.2,2.7-1.2,3.7c-0.9,1-2.3,1.6-3.7,1.6s-2.8-0.6-3.7-1.6s-1.4-2.4-1.2-3.7
							c0.4,2.6,2.5,4.4,4.8,4.4C362.1,94.1,364.3,92.3,364.6,89.7L364.6,89.7z"/>
						<path class="st12" d="M348.2,89.7c0.2,1.3-0.2,2.7-1.2,3.7c-0.9,1-2.3,1.6-3.7,1.6s-2.8-0.6-3.7-1.6s-1.4-2.4-1.2-3.7
							c0.4,2.6,2.5,4.4,4.8,4.4C345.7,94.1,347.8,92.3,348.2,89.7L348.2,89.7z"/>
						<path class="st15" d="M367.8,157h-4c-1.4,0-2.6-1.2-2.6-2.6v-22.6c0-1.4,1.2-2.6,2.6-2.6h4c1.4,0,2.6,1.2,2.6,2.6v22.6
							C370.4,155.9,369.2,157,367.8,157z"/>
						<path class="st3" d="M361.3,153.3h9.1v4.4h-9.1V153.3z"/>
						<circle class="st12" cx="346.5" cy="73.7" r="3.2"/>
						<circle class="st12" cx="350.9" cy="77.2" r="3.2"/>
						<circle class="st12" cx="362" cy="78.6" r="3.2"/>
						<circle class="st12" cx="359.3" cy="76.9" r="3.2"/>
						<circle class="st12" cx="354.5" cy="76.2" r="3.2"/>
						<circle class="st12" cx="355.5" cy="73.7" r="3.2"/>
						<circle class="st12" cx="371.6" cy="76.9" r="3.2"/>
						<circle class="st12" cx="365.9" cy="76.9" r="3.2"/>
						<circle class="st12" cx="368.5" cy="73.4" r="3.2"/>
						<circle class="st12" cx="364.1" cy="71.4" r="3.2"/>
						<circle class="st12" cx="363.3" cy="73.7" r="3.2"/>
						<circle class="st12" cx="358.7" cy="71.4" r="3.2"/>
						<circle class="st12" cx="361.4" cy="68.4" r="3.2"/>
						<circle class="st12" cx="357.7" cy="67" r="3.2"/>
						<circle class="st12" cx="354.5" cy="67.3" r="3.2"/>
						<circle class="st12" cx="350.5" cy="67.3" r="3.2"/>
						<circle class="st12" cx="363.3" cy="72" r="3.2"/>
						<circle class="st12" cx="356.9" cy="68.9" r="3.2"/>
						<circle class="st12" cx="350.5" cy="72.4" r="3.2"/>
						<circle class="st12" cx="346.2" cy="68.4" r="3.2"/>
						<circle class="st12" cx="341.9" cy="74.3" r="3.2"/>
						<circle class="st12" cx="341.9" cy="71.4" r="3.2"/>
						<circle class="st12" cx="348.6" cy="71" r="3.2"/>
						<circle class="st12" cx="352.6" cy="69.2" r="3.2"/>
						<circle class="st12" cx="346.5" cy="77.8" r="3.2"/>
						<circle class="st12" cx="343.3" cy="76.6" r="3.2"/>
						<circle class="st12" cx="342" cy="80.1" r="3.2"/>
						<circle class="st12" cx="347.3" cy="80.4" r="3.2"/>
						<circle class="st12" cx="342.7" cy="83" r="3.2"/>
						<circle class="st12" cx="338.8" cy="83.6" r="3.2"/>
						<circle class="st12" cx="335.3" cy="83.6" r="3.2"/>
						<circle class="st12" cx="331.6" cy="83.9" r="3.2"/>
						<circle class="st12" cx="328.6" cy="81.3" r="3.2"/>
						<circle class="st12" cx="331.6" cy="78.3" r="3.2"/>
						<circle class="st12" cx="339.5" cy="77.2" r="3.2"/>
						<circle class="st12" cx="338.5" cy="74" r="3.2"/>
						<circle class="st12" cx="335" cy="77.5" r="3.2"/>
						<circle class="st12" cx="336.3" cy="81.8" r="3.2"/>
						<circle class="st12" cx="333.1" cy="81" r="3.2"/>
						<circle class="st12" cx="336.7" cy="73.7" r="3.2"/>
						<circle class="st12" cx="351.8" cy="68.9" r="8.7"/>
						<circle class="st12" cx="343.1" cy="73" r="8.7"/>
						<circle class="st12" cx="347.3" cy="75.6" r="8.7"/>
						<circle class="st12" cx="336.7" cy="77.2" r="8.7"/>
						<circle class="st12" cx="339.5" cy="79.4" r="8.7"/>
						<circle class="st12" cx="331.1" cy="82" r="6.3"/>
						<circle class="st12" cx="360" cy="73.7" r="8.7"/>
						<circle class="st12" cx="368.8" cy="75.1" r="6.7"/>
						<circle class="st12" cx="364.6" cy="72.4" r="6.7"/>
						<circle class="st12" cx="358.2" cy="67.8" r="6.7"/>
						<path class="st12" d="M363.1,76.9c0.1,1.4,0.2,2.8,0.1,4.9c3.7,0.4,5,4.9,5.3,7.5s0.4,10.9,0.4,10.9c1.8-8,3.4-16.7,3.6-23.3
							C372.5,76.9,363.1,76.9,363.1,76.9z"/>
						<g>
							<path class="st12" d="M239.5,68.3c-2.1,4.2-5.8,8.7-9.2,10.1c2.5-1.3,7.1-7.7,7.5-11.3C238.2,62.7,239.5,68.3,239.5,68.3z"/>
						</g>
						
							<radialGradient id="SVGID_19_" cx="480.1476" cy="293.1765" r="6.7557" gradientTransform="matrix(0.6341 0 0 -0.9351 36.2999 376.7037)" gradientUnits="userSpaceOnUse">
							<stop  offset="0" style="stop-color:#2C6ADE"/>
							<stop  offset="3.769308e-02" style="stop-color:#2C6BDF"/>
							<stop  offset="1" style="stop-color:#377DFF"/>
						</radialGradient>
						<ellipse class="st20" cx="340.7" cy="102.5" rx="5.3" ry="5.3"/>
						
							<radialGradient id="SVGID_20_" cx="515.9835" cy="293.1765" r="6.7557" gradientTransform="matrix(0.6341 0 0 -0.9351 36.2999 376.7037)" gradientUnits="userSpaceOnUse">
							<stop  offset="0" style="stop-color:#2C6ADE"/>
							<stop  offset="3.769308e-02" style="stop-color:#2C6BDF"/>
							<stop  offset="1" style="stop-color:#377DFF"/>
						</radialGradient>
						<ellipse class="st21" cx="363.4" cy="102.5" rx="5.3" ry="5.3"/>
					</g>
				</g>
			</g>
			<path class="st22" d="M500,1L286.4,214.6L72.7,1"/>
			
				<radialGradient id="SVGID_21_" cx="688.8598" cy="1223.5728" r="471.3897" gradientTransform="matrix(0.669 0 0 0.669 -173.43 -597.079)" gradientUnits="userSpaceOnUse">
				<stop  offset="0" style="stop-color:#377DFF;stop-opacity:0.5"/>
				<stop  offset="0.6372" style="stop-color:#377DFF;stop-opacity:0"/>
			</radialGradient>
			<path class="st23" d="M287.4,9C233.3,9,182,33.4,148,75.5l108.6,108.6l30.8,11.3l30-10.5L426.8,75.5C392.8,33.4,341.6,9,287.4,9z
				"/>
			<g>
				
					<linearGradient id="SVGID_22_" gradientUnits="userSpaceOnUse" x1="-231.4791" y1="169.7972" x2="-220.5471" y2="226.9417" gradientTransform="matrix(-1 0 0 -1 163.4142 418)">
					<stop  offset="0.6616" style="stop-color:#00E083"/>
					<stop  offset="1" style="stop-color:#00D67F"/>
				</linearGradient>
				<path class="st24" d="M389,203.3c-3.5-14.8-8.9-27.6-14.6-35.7c7.7,5,15.8,19.5,20,37.7c5.5,23.5,2.6,44.5-6.4,47.7
					C393.4,244.9,394.1,225.1,389,203.3L389,203.3z"/>
				
					<linearGradient id="SVGID_23_" gradientUnits="userSpaceOnUse" x1="-278.9858" y1="199.3138" x2="-228.8703" y2="199.3138" gradientTransform="matrix(-1 0 0 -1 163.4142 418)">
					<stop  offset="0.3009" style="stop-color:#00E083"/>
					<stop  offset="1" style="stop-color:#00D67F"/>
				</linearGradient>
				<path class="st25" d="M442.4,191.4c-8.2-0.5-20.7,5.8-32,16.7c-14.7,14.1-21.7,30.9-16.3,37.9c-0.5-8.7,7.7-23.4,21.2-36.5
					C424.6,200.7,434.4,194.3,442.4,191.4z"/>
				
					<linearGradient id="SVGID_24_" gradientUnits="userSpaceOnUse" x1="-267.5858" y1="202.5" x2="-228.9821" y2="202.5" gradientTransform="matrix(-1 0 0 -1 163.4142 418)">
					<stop  offset="0.3009" style="stop-color:#00E083"/>
					<stop  offset="1" style="stop-color:#00D67F"/>
				</linearGradient>
				<path class="st26" d="M408.6,207.2c7.1-12.1,15.2-21.9,22.4-27.5c-8.2,2.3-19.2,12.9-27.7,27.7c-11.1,19.2-14.1,38.6-7.1,43.9
					C393.6,242.6,398.3,225,408.6,207.2L408.6,207.2z"/>
				
					<linearGradient id="SVGID_25_" gradientUnits="userSpaceOnUse" x1="-285.755" y1="186.8" x2="-231.1765" y2="186.8" gradientTransform="matrix(-1 0 0 -1 163.4142 418)">
					<stop  offset="0.3009" style="stop-color:#00E083"/>
					<stop  offset="1" style="stop-color:#00D67F"/>
				</linearGradient>
				<path class="st27" d="M425.1,221.8c-15.6,0-28.5,11.3-30.3,25.7c-0.1-1.1-0.2-2.3-0.2-3.5c0-16,12.7-29.1,28.3-29.1
					c11.9,0,22,7.5,26.2,18.1C443.6,226.1,434.9,221.8,425.1,221.8L425.1,221.8z"/>
				
					<linearGradient id="SVGID_26_" gradientUnits="userSpaceOnUse" x1="-269.2858" y1="181.7588" x2="-231.7858" y2="181.7588" gradientTransform="matrix(-1 0 0 -1 163.4142 418)">
					<stop  offset="0.3009" style="stop-color:#00E083"/>
					<stop  offset="1" style="stop-color:#00D67F"/>
				</linearGradient>
				<path class="st28" d="M417.8,231.7c-10.4-1.6-20.1,4.6-22.6,14c0-0.8,0.1-1.6,0.2-2.3c1.5-10.6,11.2-18,21.6-16.4
					c7.9,1.2,13.9,7.2,15.7,14.6C429.6,236.5,424.3,232.7,417.8,231.7L417.8,231.7z"/>
				
					<linearGradient id="SVGID_27_" gradientUnits="userSpaceOnUse" x1="-229.0858" y1="188.95" x2="-167.1858" y2="188.95" gradientTransform="matrix(-1 0 0 -1 163.4142 418)">
					<stop  offset="0.3009" style="stop-color:#00E083"/>
					<stop  offset="1" style="stop-color:#00D67F"/>
				</linearGradient>
				<path class="st29" d="M357.9,218.3c17.7,0,32.3,12.7,34.3,29.2c0.2-1.3,0.3-2.6,0.3-3.9c0-18.3-14.4-33-32.2-33
					c-13.4,0-25,8.4-29.7,20.5C337,223.3,346.8,218.3,357.9,218.3L357.9,218.3z"/>
				
					<linearGradient id="SVGID_28_" gradientUnits="userSpaceOnUse" x1="-155.6495" y1="251.0627" x2="-195.436" y2="197.1214" gradientTransform="matrix(-0.9946 0.1038 -0.1038 -0.9946 220.4549 454.6852)">
					<stop  offset="0.3009" style="stop-color:#00E083"/>
					<stop  offset="1" style="stop-color:#00D67F"/>
				</linearGradient>
				<path class="st30" d="M373.8,208.6c14.7,10.2,20.5,28.4,13.9,42.1c0.8-0.9,1.5-1.8,2.2-2.9c9.1-14,4.6-33.6-10.1-43.8
					c-11.1-7.8-25-7.8-35-1.3C353.9,200.3,364.6,202.2,373.8,208.6L373.8,208.6z"/>
				
					<linearGradient id="SVGID_29_" gradientUnits="userSpaceOnUse" x1="-215.9761" y1="172.4087" x2="-210.2302" y2="186.1989" gradientTransform="matrix(-1 0 0 -1 163.4142 418)">
					<stop  offset="0.3009" style="stop-color:#00E083"/>
					<stop  offset="1" style="stop-color:#00D67F"/>
				</linearGradient>
				<path class="st31" d="M390.6,251.6c0.3-0.6,0.4-1.2,0.6-1.9c2.2-9.1-3.3-18.4-12.2-20.5c-6.8-1.7-13.6,1.2-17.4,6.6
					c4.1-3.1,9.6-4.4,15.2-3C385.7,234.9,391.5,243.1,390.6,251.6z"/>
				
					<linearGradient id="Base_2_" gradientUnits="userSpaceOnUse" x1="7081.5786" y1="163.1" x2="7300.7261" y2="163.1" gradientTransform="matrix(-1 0 0 -1 7490.2153 418)">
					<stop  offset="6.126798e-02" style="stop-color:#424242"/>
					<stop  offset="0.2431" style="stop-color:#78787A"/>
					<stop  offset="0.4224" style="stop-color:#A6A6A9"/>
					<stop  offset="0.5919" style="stop-color:#CACACD"/>
					<stop  offset="0.7493" style="stop-color:#E4E4E8"/>
					<stop  offset="0.89" style="stop-color:#F4F4F7"/>
					<stop  offset="1" style="stop-color:#F9F9FD"/>
				</linearGradient>
				<path id="Base_1_" class="st32" d="M374.2,241.6c0,17.5,2.7,26.6,17.2,26.6s17.2-9.2,17.2-26.6H374.2z"/>
			</g>
			
				<linearGradient id="SVGID_30_" gradientUnits="userSpaceOnUse" x1="336.5" y1="924.06" x2="336.5" y2="990.47" gradientTransform="matrix(1 0 0 1 0.3 -696.1)">
				<stop  offset="0.2539" style="stop-color:#0F3986"/>
				<stop  offset="0.9267" style="stop-color:#0F3986;stop-opacity:0"/>
			</linearGradient>
			<path class="st33" d="M320,267.5h33.6v36.4H320V267.5z"/>
			
				<linearGradient id="SVGID_31_" gradientUnits="userSpaceOnUse" x1="336.5" y1="924.06" x2="336.5" y2="990.47" gradientTransform="matrix(1 0 0 1 0.3 -696.1)">
				<stop  offset="0.2539" style="stop-color:#0F3986"/>
				<stop  offset="0.9267" style="stop-color:#0F3986;stop-opacity:0"/>
			</linearGradient>
			<path class="st34" d="M320,267.5h33.6v36.4H320V267.5z"/>
			<path class="st35" d="M364.9,306.2h31v6.9h-31V306.2z"/>
			<path class="st35" d="M392.9,313.1l-3.8,14.4h-17.4l-3.8-14.4H392.9z"/>
			
				<linearGradient id="SVGID_32_" gradientUnits="userSpaceOnUse" x1="380.1" y1="992.07" x2="380.1" y2="1028.08" gradientTransform="matrix(1 0 0 1 0.3 -696.1)">
				<stop  offset="0" style="stop-color:#424242"/>
				<stop  offset="0.9267" style="stop-color:#424242;stop-opacity:0"/>
			</linearGradient>
			<path class="st36" d="M392.9,313.1l-3.8,14.4h-17.4l-3.8-14.4H392.9z"/>
			<path class="st12" d="M307.7,268v-3c-5,0.2-10-1.5-13.8-5.3s-5.6-9-5.3-14h-4.4c0.3,5-1.5,10.1-5.3,14c-3.8,3.8-8.8,5.6-13.8,5.3
				v3H307.7z"/>
			
				<linearGradient id="SVGID_33_" gradientUnits="userSpaceOnUse" x1="286.2639" y1="129.1703" x2="286.4856" y2="165.5281" gradientTransform="matrix(1 0 0 -1 0 418)">
				<stop  offset="0.6222" style="stop-color:#0F3986"/>
				<stop  offset="1" style="stop-color:#001F74"/>
			</linearGradient>
			<path class="st37" d="M307.7,268v-3c-5,0.2-10-1.5-13.8-5.3s-5.6-9-5.3-14h-4.4c0.3,5-1.5,10.1-5.3,14c-3.8,3.8-8.8,5.6-13.8,5.3
				v3H307.7z"/>
			<path class="st12" d="M351.8,255.4H221c-1.5,0-2.7-1.2-2.7-2.7v-76.2c0-1.5,1.2-2.7,2.7-2.7h130.8c1.5,0,2.7,1.2,2.7,2.7v76.2
				C354.5,254.2,353.3,255.4,351.8,255.4z"/>
			<path class="st3" d="M223.1,177.8h127v64.7h-127V177.8z"/>
			<path class="st35" d="M336.8,248.3h1.5v1.5h-1.5V248.3z"/>
			<path class="st38" d="M339.7,248.3h1.5v1.5h-1.5V248.3z"/>
			<path class="st35" d="M342.6,248.3h1.5v1.5h-1.5V248.3z"/>
			<path class="st35" d="M345.5,248.3h1.5v1.5h-1.5V248.3z"/>
			<path class="st35" d="M348.4,248.3h1.5v1.5h-1.5V248.3z"/>
			
				<linearGradient id="SVGID_34_" gradientUnits="userSpaceOnUse" x1="269.15" y1="66.1915" x2="269.15" y2="226.0825" gradientTransform="matrix(1 0 0 -1 0 418)">
				<stop  offset="0.4654" style="stop-color:#0F3986"/>
				<stop  offset="0.4798" style="stop-color:#123E8F"/>
				<stop  offset="0.5456" style="stop-color:#1D51B1"/>
				<stop  offset="0.6158" style="stop-color:#2761CD"/>
				<stop  offset="0.6907" style="stop-color:#2E6DE3"/>
				<stop  offset="0.7726" style="stop-color:#3376F3"/>
				<stop  offset="0.8666" style="stop-color:#367BFC"/>
				<stop  offset="1" style="stop-color:#377DFF"/>
			</linearGradient>
			<path class="st39" d="M287.3,354.5h120.5v-87H130.5v10.4h156.8V354.5z"/>
			<path class="st15" d="M294.8,328.5h105.6v17.8H294.8V328.5z"/>
			<path class="st15" d="M294.8,277.9h105.6v17.8H294.8V277.9z"/>
			<path class="st15" d="M294.8,303.2h105.6V321H294.8V303.2z"/>
			<path class="st17" d="M309.1,285.2h14.3v3h-14.3V285.2z"/>
			<path class="st17" d="M371.8,285.2h14.3v3h-14.3V285.2z"/>
			<path class="st17" d="M309.1,310.6h14.3v3h-14.3V310.6z"/>
			<path class="st17" d="M371.8,310.6h14.3v3h-14.3V310.6z"/>
			<path class="st17" d="M309.1,335.9h14.3v3h-14.3V335.9z"/>
			<path class="st17" d="M371.8,335.9h14.3v3h-14.3V335.9z"/>
			
				<linearGradient id="SVGID_35_" gradientUnits="userSpaceOnUse" x1="136.7722" y1="57.0064" x2="137.7698" y2="167.41" gradientTransform="matrix(1 0 0 -1 0 418)">
				<stop  offset="0.4654" style="stop-color:#0F3986"/>
				<stop  offset="0.4798" style="stop-color:#123E8F"/>
				<stop  offset="0.5456" style="stop-color:#1D51B1"/>
				<stop  offset="0.6158" style="stop-color:#2761CD"/>
				<stop  offset="0.6907" style="stop-color:#2E6DE3"/>
				<stop  offset="0.7726" style="stop-color:#3376F3"/>
				<stop  offset="0.8666" style="stop-color:#367BFC"/>
				<stop  offset="1" style="stop-color:#377DFF"/>
			</linearGradient>
			<path class="st40" d="M134.5,277.9h5.4v71.5h-5.4V277.9z"/>
			<path class="st15" d="M141.6,349.3v5.2h-8.7v-5.2H141.6z"/>
			<g>
				<path class="st17" d="M182.7,263h22.9v3.6h-22.9V263z"/>
				<path class="st17" d="M182.8,238.3h22.9v3.6h-22.9V238.3z"/>
				<path class="st17" d="M182.8,231.4h22.9v3.6h-22.9V231.4z"/>
				<path class="st17" d="M182,248.8h22.9v3.6H182V248.8z"/>
				<path class="st41" d="M184.1,252.4H207v3.6h-22.9V252.4z"/>
				<path class="st12" d="M182.8,241.9h22.9v3.6h-22.9V241.9z"/>
				<path class="st12" d="M182.7,259.3h22.9v3.6h-22.9V259.3z"/>
				<path class="st42" d="M178.1,227.5h1.2v40h-1.2V227.5z"/>
				<path class="st42" d="M209,227.5h1.2v40H209V227.5z"/>
				<path class="st35" d="M208.9,266.6v0.9h-29.7v-0.9H208.9z"/>
				<path class="st35" d="M208.9,256.1v0.9h-29.7v-0.9H208.9z"/>
				<path class="st35" d="M208.9,245.6v0.9h-29.7v-0.9H208.9z"/>
				<path class="st35" d="M209,235.1v0.9h-29.7v-0.9H209z"/>
			</g>
			<g>
				<path class="st42" d="M368.2,255.7l-2.4-0.3l1.4-12c0.1-0.7,0.7-1.1,1.3-1h0.1c0.7,0.1,1.1,0.7,1,1.3L368.2,255.7z"/>
				<path class="st35" d="M368.3,242.2l0.5,0.1l-0.6,5.4l-0.5-0.1L368.3,242.2z"/>
				<path class="st35" d="M366.3,250.7l2.5,0.3v0.2l-2.5-0.3V250.7z"/>
				<path class="st35" d="M363.9,245.5h1.2v8.5h-1.2V245.5z"/>
				<path class="st17" d="M363.9,241.2h1.2v4.3h-1.2V241.2z"/>
				<path class="st42" d="M363.9,245.5h1.2v0.4h-1.2V245.5z"/>
				<path class="st35" d="M362,245.5h1.2v8.5H362V245.5z"/>
				<path class="st43" d="M362,241.2h1.2v4.3H362V241.2z"/>
				<path class="st42" d="M362,245.5h1.2v0.4H362V245.5z"/>
				<path class="st35" d="M360.1,245.5h1.2v8.5h-1.2V245.5z"/>
				<path class="st38" d="M360.1,241.2h1.2v4.3h-1.2V241.2z"/>
				<path class="st42" d="M360.1,245.5h1.2v0.4h-1.2V245.5z"/>
				<path class="st17" d="M358.9,267.5l-1.2-14.1h12.7l-1.2,14.1H358.9z"/>
			</g>
			<path class="st12" d="M257.2,267.5c-2.2-4.5-6.8-7.6-12.1-7.6s-9.9,3.1-12.1,7.6H257.2z"/>
			
				<linearGradient id="SVGID_36_" gradientUnits="userSpaceOnUse" x1="136.85" y1="1035.35" x2="136.85" y2="1063.45" gradientTransform="matrix(1 0 0 1 0.3 -696.1)">
				<stop  offset="0.2539" style="stop-color:#0F3986"/>
				<stop  offset="0.9267" style="stop-color:#0F3986;stop-opacity:0"/>
			</linearGradient>
			<path class="st44" d="M132.8,354.5h8.7v11.9h-8.7V354.5z"/>
			<circle class="st38" cx="286.6" cy="210.1" r="13.3"/>
			<g>
				<path class="st3" d="M280.3,209.8c1.2,0.6,2.2,1.3,3.3,2c0.5,0.3,1,0.7,1.6,1.1c0.5,0.4,1,0.8,1.5,1.1l-1.3,0.2
					c1.2-1.9,2.6-3.8,4-5.5c0.7-0.9,1.5-1.8,2.2-2.6c0.8-0.8,1.6-1.7,2.5-2.4c-0.4,1.1-1,2.1-1.5,3.1s-1.1,2-1.8,2.9
					c-1.2,1.9-2.5,3.8-4,5.6l-0.7,0.8l-0.7-0.7c-0.5-0.4-0.9-0.9-1.4-1.3c-0.4-0.5-0.9-0.9-1.3-1.4
					C281.9,211.8,281.1,210.8,280.3,209.8z"/>
			</g>
			<g>
				<polygon class="st15" points="97.5,276.3 100.2,292.9 106.2,290.6 101.2,274 				"/>
				<path class="st12" d="M164.2,288.6h-59c-5.4,0-9.8,4.4-9.8,9.8l0,0c0,10,8.1,18.2,18.2,18.2h42.1c10,0,18.2-8.1,18.2-18.2l0,0
					C174,293,169.6,288.6,164.2,288.6z"/>
				<path class="st12" d="M114.3,269.2l-7.3-58.5c-0.7-5.3-5.5-9.1-10.9-8.5l-8.4,1c-5.3,0.7-9.1,5.5-8.5,10.9l7.3,58.5
					c0.7,5.3,5.5,9.1,10.9,8.5l8.4-1C111.2,279.4,115,274.5,114.3,269.2z"/>
				<path class="st15" d="M200.3,375.7h-7.9v-9.6c0-1.9,1.6-3.5,3.5-3.5h0.9c1.9,0,3.5,1.6,3.5,3.5V375.7z"/>
				<path class="st15" d="M192.5,366.1h7.8l23.2,9.6H204l-11.5-4.8V366.1z"/>
				<path class="st15" d="M209.8,291.3l-9.2,72.1c-0.3,2.5-2.2,4.4-4.4,4.2s-3.9-2.5-3.7-5.1l5.1-72.4c0.2-2.7,2.2-4.7,4.4-4.6
					l4.1,0.3C208.5,286,210.2,288.5,209.8,291.3L209.8,291.3z"/>
				<path class="st15" d="M228.3,341.8l-7.4,2.7l-3.3-9c-0.7-1.8,0.3-3.8,2.1-4.4l0.9-0.3c1.8-0.7,3.8,0.3,4.4,2.1L228.3,341.8z"/>
				<path class="st15" d="M217.6,335.4l7.4-2.7l25.1,1.2l-18.4,6.6l-12.4-0.6L217.6,335.4z"/>
				<path class="st15" d="M207.6,257.3c1.6,2.8,0.2,6.5-3.2,8.5l-62.6,36c-3.3,1.9-7.3,1.2-8.9-1.5l-2-3.6c-1.7-2.9,0-6.9,3.6-8.7
					l64.7-32.4C202.4,253.9,206.1,254.7,207.6,257.3z"/>
				<path class="st15" d="M208.6,259.2l15.8,71c0.6,2.5-0.6,4.9-2.7,5.5c-2.2,0.6-4.5-1-5.2-3.6l-19.8-69.8
					c-0.7-2.6,0.4-5.2,2.6-5.8l4-1.1C205.6,254.6,208,256.4,208.6,259.2L208.6,259.2z"/>
				
					<linearGradient id="SVGID_37_" gradientUnits="userSpaceOnUse" x1="207.7" y1="1056.55" x2="207.7" y2="1084.65" gradientTransform="matrix(1 0 0 1 0.3 -696.1)">
					<stop  offset="0.2539" style="stop-color:#0F3986"/>
					<stop  offset="0.9267" style="stop-color:#0F3986;stop-opacity:0"/>
				</linearGradient>
				<path class="st45" d="M192.5,375.7h31v11.9h-31V375.7z"/>
				<path class="st46" d="M172.4,239.7l-0.3,0.3c-2,2.6-5.7,3-8.2,1.1l-35.8-27.7c-2.6-2-3-5.7-1.1-8.2l0.3-0.3c2-2.6,5.7-3,8.2-1.1
					l35.8,27.7C173.9,233.4,174.4,237.1,172.4,239.7L172.4,239.7z"/>
				<path class="st46" d="M198.3,196.2l0.3,0.3c2.6,2,3,5.7,1.1,8.2L172.4,240c-2,2.6-5.7,3-8.2,1.1l-0.3-0.3c-2.6-2-3-5.7-1.1-8.2
					l27.3-35.3C192,194.7,195.7,194.2,198.3,196.2z"/>
				<path class="st17" d="M197.8,194.8c-0.9,0-1.7-0.6-1.9-1.5c-0.2-1,0.4-2.1,1.5-2.3l10.8-2.4c1-0.2,2.1,0.4,2.3,1.5
					c0.2,1-0.4,2.1-1.5,2.3l-10.8,2.4H197.8L197.8,194.8z"/>
				<path class="st17" d="M197.5,198.8c-0.9,0-1.7-0.6-1.9-1.5c-0.2-1,0.4-2.1,1.5-2.3l13.1-2.9c1-0.2,2.1,0.4,2.3,1.5
					c0.2,1-0.4,2.1-1.5,2.3l-13.1,2.9H197.5L197.5,198.8z"/>
				<path class="st17" d="M199.4,202.3c-0.9,0-1.7-0.6-1.9-1.5c-0.2-1,0.4-2.1,1.5-2.3l9.2-2.1c1-0.2,2.1,0.4,2.3,1.5
					c0.2,1-0.4,2.1-1.5,2.3l-9.2,2.1H199.4L199.4,202.3z"/>
				<circle class="st17" cx="198.6" cy="196.6" r="5.7"/>
				<path class="st17" d="M194.8,199c-0.9,0-1.7-0.6-1.9-1.5c-0.9-3.8,0.4-6.6,1.7-8.2c1.5-2,3.7-3.4,6.2-3.9c1-0.2,2.1,0.4,2.3,1.5
					c0.2,1-0.4,2.1-1.5,2.3c-1.5,0.3-3,1.3-3.9,2.5c-1.1,1.4-1.4,3.1-1,5.1c0.2,1-0.4,2.1-1.5,2.3C195.1,199,194.9,199,194.8,199
					L194.8,199z"/>
				<circle class="st15" cx="130.5" cy="289.7" r="19.2"/>
				
					<linearGradient id="SVGID_38_" gradientUnits="userSpaceOnUse" x1="-93.816" y1="638.4669" x2="-93.816" y2="734.63" gradientTransform="matrix(0.9918 -0.1275 0.1231 0.958 133.8004 -420.545)">
					<stop  offset="0" style="stop-color:#FFB92D"/>
					<stop  offset="1" style="stop-color:#FF962D"/>
				</linearGradient>
				<path class="st47" d="M128.1,202.2l-17.4,2.2c-6.3,0.8-10.8,6.6-10,12.9l10.9,75.6c0,0,2.1,2,8.4,1.2l16.2-4.4
					c9.9-3.2,13.1-9.2,13.1-9.2l-8.3-68.3C140.2,205.8,134.4,201.4,128.1,202.2L128.1,202.2z"/>
				<path class="st17" d="M109.3,176.6l13-1.6l3.6,27.4l-0.8,3.4l-12.2-1.7L109.3,176.6z"/>
				
					<linearGradient id="SVGID_39_" gradientUnits="userSpaceOnUse" x1="-93.8939" y1="548.2188" x2="-93.8939" y2="575.8688" gradientTransform="matrix(0.9918 -0.1275 0.1275 0.9918 137.8204 -389.275)">
					<stop  offset="0" style="stop-color:#0F3986"/>
					<stop  offset="0.9267" style="stop-color:#0F3986;stop-opacity:0"/>
				</linearGradient>
				<path class="st48" d="M122.3,175l2.7,21l-12.9,1.7l-2.8-21.1L122.3,175z"/>
				<path class="st17" d="M137,164.5c0.6,1.6,2.4,5.8,7,8.7c-2.3,1.7-4.7,2.7-8.8,2.4C131.2,175.2,137,164.5,137,164.5L137,164.5z"
					/>
				<path class="st17" d="M117.8,142.7l-1.2,0.2c-8.9,1.1-15.2,9.3-14.1,18.2l0.2,1.2c1.1,8.9,9.3,15.2,18.2,14.1l1.2-0.2
					c8.9-1.1,15.2-9.3,14.1-18.2l-0.2-1.2C134.9,147.9,126.7,141.6,117.8,142.7L117.8,142.7z"/>
				<path class="st17" d="M136.1,157.4c-13.4,1.7-25.5-6.1-24.3,3.1l2.7,21.1c1.1,8.3,11,14.1,22.8,13.9c2,0,3.5-1.8,3.2-3.8
					L136.1,157.4z"/>
				<path class="st12" d="M139.8,175c1.2-0.4,2.5-1,3.5-1.7c-1.6-1.1-2.9-2.3-3.9-3.7c-0.6-0.8-1.1-1.7-1.5-2.5
					c-0.4-0.9-0.6-1.5-0.8-2.5c0.4,0.8,0.9,1.6,1.4,2.4c0.5,0.8,1.1,1.5,1.7,2.2c1.3,1.4,2.7,2.7,4.3,3.8l0.5,0.3l-0.5,0.4
					c-1.3,1-2.8,1.7-4.5,2c-1.6,0.3-3.3,0.3-4.7-0.1C136.8,175.6,138.4,175.4,139.8,175L139.8,175z"/>
				<path class="st12" d="M129.5,182.7c0.4,0.7,1.1,1.3,1.8,1.8s1.6,0.7,2.5,0.9c1.7,0.2,3.6-0.3,4.8-1.5c-1.6,0.5-3.1,0.7-4.7,0.5
					C132.3,184.2,130.9,183.6,129.5,182.7L129.5,182.7z"/>
				<path class="st12" d="M133.3,156.3c-0.7-0.5-1.5-0.8-2.4-0.8c-0.9-0.1-1.7,0-2.6,0.3c-1.7,0.5-3.1,1.8-3.7,3.4
					c1.2-1.2,2.5-2,4-2.5C130.1,156.1,131.7,156,133.3,156.3L133.3,156.3z"/>
				<path class="st12" d="M117,151c2.6,0.7,9,5,13.8,1.6c3.4-2.5,6.1-2.3,6.6,0.1c0.8,4.1,10.1,1.4,13.7-4.2
					c3.6-5.6,1.2-12.1,0-14.4c-0.2,2.6-2.5,9.7-6.9,9.2s-3.6-4.9-2.9-6.5c0.6-1.5-1-6.2-7.5-3.7s-6.3,4.2-12.1,4.2
					c-6.5,0.1-12.7-4.2-12,5.5c0.1,1.8,0.6-0.5,0.3,2.2C109.7,147.7,111.9,149.7,117,151L117,151z"/>
				<path class="st12" d="M118.3,143.3c-5-1-15.2-3.4-19.8-1.4c2,6.1-7.7,26.4,9,40.3c3.5-4.1,9.3-4.7,9.5-12.5s-2.2-11.2,2.8-13.3
					c-1.6-5.2-2.1-7.5-2.1-7.5L118.3,143.3z"/>
				
					<ellipse transform="matrix(0.931 -0.3651 0.3651 0.931 -56.324 53.1186)" class="st17" cx="112.3" cy="175.5" rx="4.7" ry="6.6"/>
				<path class="st46" d="M89.1,261.2l0.4,0.2c3,1.1,6.4-0.4,7.5-3.4l15.9-42.4c1.1-3-0.4-6.4-3.4-7.5l-0.4-0.2
					c-3-1.1-6.4,0.4-7.5,3.4l-15.9,42.4C84.5,256.7,86.1,260.1,89.1,261.2L89.1,261.2z"/>
				<path class="st15" d="M209.5,289.3c0.6,3.1-2.1,6.2-5.9,6.9l-71.1,12.6c-3.8,0.7-7.3-1.3-7.9-4.5l-0.7-4c-0.6-3.3,2.3-6.5,6.3-7
					l71.8-8.6C205.7,284.3,209,286.3,209.5,289.3L209.5,289.3z"/>
				<path class="st17" d="M138.5,295.6c-0.2,0-0.4,0-0.6-0.1l-10.6-3.2c-1-0.3-1.6-1.4-1.3-2.4c0.3-1,1.4-1.6,2.4-1.3l10.6,3.2
					c1,0.3,1.6,1.4,1.3,2.4C140,295.1,139.3,295.6,138.5,295.6z"/>
				<path class="st17" d="M138.6,299.7c-0.2,0-0.4,0-0.6-0.1l-12.9-3.9c-1-0.3-1.6-1.4-1.3-2.4c0.3-1,1.4-1.6,2.4-1.3l12.9,3.9
					c1,0.3,1.6,1.4,1.3,2.4C140.2,299.1,139.4,299.7,138.6,299.7L138.6,299.7z"/>
				<path class="st17" d="M134.7,302.5c-0.2,0-0.4,0-0.6-0.1l-9-2.7c-1-0.3-1.6-1.4-1.3-2.4c0.3-1,1.4-1.6,2.4-1.3l9,2.7
					c1,0.3,1.6,1.4,1.3,2.4C136.2,301.9,135.5,302.5,134.7,302.5z"/>
				
					<ellipse transform="matrix(0.9951 -9.854093e-02 9.854093e-02 0.9951 -28.3731 13.9165)" class="st17" cx="126.7" cy="294.2" rx="5.7" ry="5.7"/>
				<path class="st17" d="M123.2,294.6c-0.2,0-0.4,0-0.6-0.1c-1-0.3-1.6-1.4-1.3-2.4c1.1-3.8,3.6-5.5,5.5-6.4c2.3-1,4.9-1.1,7.3-0.4
					c1,0.3,1.6,1.4,1.3,2.4s-1.4,1.6-2.4,1.3c-1.5-0.5-3.2-0.4-4.7,0.3c-1.7,0.7-2.8,2-3.4,3.9C124.8,294.1,124,294.6,123.2,294.6
					L123.2,294.6z"/>
				<path class="st46" d="M123.7,294.2l0.3-0.3c2.5-2.1,2.8-5.8,0.7-8.3l-28.9-34.1c-2.1-2.5-5.8-2.8-8.3-0.7l-0.3,0.3
					c-2.5,2.1-2.8,5.8-0.7,8.3l28.9,34.1C117.5,295.9,121.3,296.2,123.7,294.2z"/>
				<path class="st12" d="M134.2,162.5c0.3,1,0.1,2.3-0.5,3.3s-1.7,1.7-2.9,1.8c-1.2,0.2-2.4-0.2-3.3-0.9c-0.9-0.7-1.4-1.9-1.4-3
					c0.6,2.1,2.7,3.4,4.6,3.1C132.6,166.5,134.2,164.7,134.2,162.5L134.2,162.5z"/>
				<path class="st3" d="M126.2,161.7c-0.2,0.6-0.3,1.3-0.2,2c0.3,2.3,2.4,3.9,4.7,3.5c2.3-0.3,3.9-2.4,3.5-4.7
					c-0.1-0.7-0.4-1.3-0.8-1.8c-1.2-0.4-2.5-0.5-3.8-0.3C128.4,160.5,127.2,161,126.2,161.7z"/>
				<circle class="st12" cx="132.2" cy="162.2" r="1.5"/>
				<g>
					<rect x="129.5" y="317.8" class="st15" width="5.3" height="44.4"/>
					<path class="st15" d="M136.3,371.6H128v-24.3c0-1,0.8-1.8,1.8-1.8h4.5c1,0,1.8,0.8,1.8,1.8v24.3H136.3z"/>
					<path class="st15" d="M144,315.7c0,2.7-5.3,4.9-11.7,4.9c-6.5,0-11.7-2.2-11.7-4.9H144z"/>
				</g>
				<path class="st15" d="M132.5,364.8L97,369.1c-0.5,0.1-0.9,0.5-1.2,1l0,0c-0.6,1.2,0.5,2.6,1.8,2.4l30.4-0.8l-17.5,8.5v4h2.7
					l19.6-10.3L132.5,364.8z"/>
				<circle class="st15" cx="96.7" cy="374.7" r="3.8"/>
				<circle class="st15" cx="112.2" cy="387.4" r="3.8"/>
				<polygon class="st15" points="132.7,365.3 167.4,368.8 169,372.4 137.1,372.1 153.4,380.7 153.4,384.7 150.8,384.7 132.4,374.3 
									"/>
				<circle class="st15" cx="166.9" cy="374.2" r="3.8"/>
				<circle class="st15" cx="151.8" cy="388" r="3.8"/>
			</g>
		</g>
	</g>
</g>
<linearGradient id="SVGID_40_" gradientUnits="userSpaceOnUse" x1="17.9735" y1="66.1713" x2="12.856" y2="137.8169" gradientTransform="matrix(1 0 0 -1 0 418)">
	<stop  offset="0" style="stop-color:#377DFF"/>
	<stop  offset="1.511830e-02" style="stop-color:#4183FF"/>
	<stop  offset="8.178049e-02" style="stop-color:#699DFE"/>
	<stop  offset="0.1551" style="stop-color:#8CB3FD"/>
	<stop  offset="0.2344" style="stop-color:#AAC6FC"/>
	<stop  offset="0.3216" style="stop-color:#C2D6FC"/>
	<stop  offset="0.42" style="stop-color:#D4E1FC"/>
	<stop  offset="0.5362" style="stop-color:#E1EAFB"/>
	<stop  offset="0.6871" style="stop-color:#E9EFFB"/>
	<stop  offset="1" style="stop-color:#EBF0FB"/>
</linearGradient>
<circle class="st49" cx="15" cy="310.2" r="8.6"/>
<linearGradient id="SVGID_41_" gradientUnits="userSpaceOnUse" x1="30.3414" y1="289.8208" x2="26.1865" y2="347.9893" gradientTransform="matrix(1 0 0 -1 0 418)">
	<stop  offset="0" style="stop-color:#377DFF"/>
	<stop  offset="1.964939e-02" style="stop-color:#4586FF"/>
	<stop  offset="8.234167e-02" style="stop-color:#6C9FFE"/>
	<stop  offset="0.1516" style="stop-color:#8EB5FD"/>
	<stop  offset="0.227" style="stop-color:#ABC7FC"/>
	<stop  offset="0.3104" style="stop-color:#C3D6FC"/>
	<stop  offset="0.4053" style="stop-color:#D5E2FB"/>
	<stop  offset="0.5186" style="stop-color:#E2EAFB"/>
	<stop  offset="0.6684" style="stop-color:#E9EFFB"/>
	<stop  offset="1" style="stop-color:#EBF0FB"/>
</linearGradient>
<circle class="st50" cx="27.2" cy="84.2" r="9.1"/>
<linearGradient id="SVGID_42_" gradientUnits="userSpaceOnUse" x1="482.7588" y1="103.2762" x2="478.953" y2="156.5577" gradientTransform="matrix(1 0 0 -1 0 418)">
	<stop  offset="0" style="stop-color:#377DFF"/>
	<stop  offset="1.327246e-02" style="stop-color:#4083FF"/>
	<stop  offset="8.141917e-02" style="stop-color:#689CFE"/>
	<stop  offset="0.1562" style="stop-color:#8BB3FD"/>
	<stop  offset="0.2369" style="stop-color:#A9C6FC"/>
	<stop  offset="0.3255" style="stop-color:#C1D5FC"/>
	<stop  offset="0.4252" style="stop-color:#D4E1FC"/>
	<stop  offset="0.5424" style="stop-color:#E1EAFB"/>
	<stop  offset="0.6936" style="stop-color:#E9EFFB"/>
	<stop  offset="1" style="stop-color:#EBF0FB"/>
</linearGradient>
<path class="st51" d="M487.3,271.8L487.3,271.8l-12.9-0.1c-4.4,0-7.9,3.5-7.9,7.9s3.5,7.9,7.9,7.9c0.6,0-0.6,0.1,0,0h11.7
	c0.6,0.1-0.6,0,0,0c4.4,0,7.9-3.5,7.9-7.9C494,275.6,491.1,272.3,487.3,271.8z"/>
<g>
	
		<linearGradient id="SVGID_43_" gradientUnits="userSpaceOnUse" x1="201.2284" y1="2.9515" x2="201.2212" y2="3.0513" gradientTransform="matrix(1 0 0 -1 0 418)">
		<stop  offset="0" style="stop-color:#EBF0FB"/>
		<stop  offset="4.770680e-02" style="stop-color:#D6E3FB"/>
		<stop  offset="0.1711" style="stop-color:#A6C4FD"/>
		<stop  offset="0.2938" style="stop-color:#7EAAFD"/>
		<stop  offset="0.4137" style="stop-color:#5F97FE"/>
		<stop  offset="0.53" style="stop-color:#4988FF"/>
		<stop  offset="0.6411" style="stop-color:#3C80FF"/>
		<stop  offset="0.7412" style="stop-color:#377DFF"/>
	</linearGradient>
	<path class="st52" d="M201.2,415C200.9,415,201.6,415,201.2,415L201.2,415z"/>
	
		<linearGradient id="SVGID_44_" gradientUnits="userSpaceOnUse" x1="208.081" y1="2.917" x2="208.0709" y2="3.0582" gradientTransform="matrix(1 0 0 -1 0 418)">
		<stop  offset="0" style="stop-color:#EBF0FB"/>
		<stop  offset="4.770680e-02" style="stop-color:#D6E3FB"/>
		<stop  offset="0.1711" style="stop-color:#A6C4FD"/>
		<stop  offset="0.2938" style="stop-color:#7EAAFD"/>
		<stop  offset="0.4137" style="stop-color:#5F97FE"/>
		<stop  offset="0.53" style="stop-color:#4988FF"/>
		<stop  offset="0.6411" style="stop-color:#3C80FF"/>
		<stop  offset="0.7412" style="stop-color:#377DFF"/>
	</linearGradient>
	<path class="st53" d="M208.1,415C207.7,415,208.4,415,208.1,415L208.1,415z"/>
	
		<linearGradient id="SVGID_45_" gradientUnits="userSpaceOnUse" x1="201.9973" y1="-17.3651" x2="199.6292" y2="15.7889" gradientTransform="matrix(1 0 0 -1 0 418)">
		<stop  offset="0" style="stop-color:#EBF0FB"/>
		<stop  offset="4.770680e-02" style="stop-color:#D6E3FB"/>
		<stop  offset="0.1711" style="stop-color:#A6C4FD"/>
		<stop  offset="0.2938" style="stop-color:#7EAAFD"/>
		<stop  offset="0.4137" style="stop-color:#5F97FE"/>
		<stop  offset="0.53" style="stop-color:#4988FF"/>
		<stop  offset="0.6411" style="stop-color:#3C80FF"/>
		<stop  offset="0.7412" style="stop-color:#377DFF"/>
	</linearGradient>
	<path class="st54" d="M212.7,410.3c0-2.3-1.7-4.2-3.9-4.6l-7.6-0.1c-0.4,0-0.7,0.1-1,0.1c-0.1,0-0.2-0.1-0.3-0.1l-7.6-0.1
		c-2.6,0-4.6,2.1-4.6,4.6c0,2.6,2.1,4.6,4.6,4.6h6.9c0.4,0,0.7,0,1-0.1c0.3,0.1,0.7,0.1,1,0.1h6.9
		C210.7,415,212.7,412.9,212.7,410.3z"/>
	
		<linearGradient id="SVGID_46_" gradientUnits="userSpaceOnUse" x1="192.3783" y1="2.9543" x2="192.3712" y2="3.0541" gradientTransform="matrix(1 0 0 -1 0 418)">
		<stop  offset="0" style="stop-color:#EBF0FB"/>
		<stop  offset="4.770680e-02" style="stop-color:#D6E3FB"/>
		<stop  offset="0.1711" style="stop-color:#A6C4FD"/>
		<stop  offset="0.2938" style="stop-color:#7EAAFD"/>
		<stop  offset="0.4137" style="stop-color:#5F97FE"/>
		<stop  offset="0.53" style="stop-color:#4988FF"/>
		<stop  offset="0.6411" style="stop-color:#3C80FF"/>
		<stop  offset="0.7412" style="stop-color:#377DFF"/>
	</linearGradient>
	<path class="st55" d="M192.4,415C192,415,192.7,415,192.4,415L192.4,415z"/>
	
		<linearGradient id="SVGID_47_" gradientUnits="userSpaceOnUse" x1="199.181" y1="2.9163" x2="199.1709" y2="3.0574" gradientTransform="matrix(1 0 0 -1 0 418)">
		<stop  offset="0" style="stop-color:#EBF0FB"/>
		<stop  offset="4.770680e-02" style="stop-color:#D6E3FB"/>
		<stop  offset="0.1711" style="stop-color:#A6C4FD"/>
		<stop  offset="0.2938" style="stop-color:#7EAAFD"/>
		<stop  offset="0.4137" style="stop-color:#5F97FE"/>
		<stop  offset="0.53" style="stop-color:#4988FF"/>
		<stop  offset="0.6411" style="stop-color:#3C80FF"/>
		<stop  offset="0.7412" style="stop-color:#377DFF"/>
	</linearGradient>
	<path class="st56" d="M199.2,415C198.8,415,199.5,415,199.2,415L199.2,415z"/>
</g>
</svg>
