<svg xmlns="http://www.w3.org/2000/svg" xmlns:xlink="http://www.w3.org/1999/xlink" version="1.1" x="0px" y="0px" viewBox="0 0 141.589 269.87874999999997" style="enable-background:new 0 0 141.589 215.903;" xml:space="preserve"><g><path d="M134.501,61.166H77.168v0.135L72.5,83.98c0.702,0.333,1.43,0.65,2.185,0.951l2.483-12.063v12.968   c2.802,0.926,5.914,1.671,9.362,2.233c5.438,0.863,9.165,5.997,8.3,11.44c-0.772,4.888-4.922,8.434-9.864,8.434   c-0.522,0-1.054-0.043-1.574-0.125c-2.187-0.339-4.255-0.747-6.224-1.208v11.89h57.333V72.872l4.804,23.337l2.284-0.47   l-7.088-34.434V61.166z"/><ellipse transform="matrix(0.4315 -0.9021 0.9021 0.4315 25.6587 85.7132)" cx="80.834" cy="22.499" rx="22.494" ry="22.495"/><path d="M47.012,107.299c0.75-4.828,1.995-9.703,3.53-14.491c-1.589-1.58-2.912-3.144-4.002-4.62   c-6.998-9.409-8.471-19.769-8.473-26.802c0.009-5.953,0.988-10.281,1.41-11.865c1.213-4.374,5.174-7.385,9.645-7.385   c0.902,0,1.807,0.123,2.683,0.367c5.306,1.474,8.428,6.989,6.96,12.295l-0.039,0.188c-0.069,0.303-0.162,0.747-0.255,1.33   c-0.184,1.129-0.401,2.921-0.399,5.068c-0.001,2.475,0.295,5.632,1.382,8.852c0.502-1.135,0.992-2.239,1.472-3.32   c-0.254,1.643-0.546,3.278-0.867,4.906c0.634,1.502,1.451,2.996,2.517,4.418c0.843,1.113,1.798,2.15,2.86,3.117   c1.212-11.807,1.541-24.77,0.106-30.203c-0.477-5.095-2.728-9.568-6.9-11.644c-7.876-3.919-20.961-2.061-29.033,11.151   C18.608,66.892,14.35,79.399,12.085,101.65c-0.04,1.579,0.022,3.04,0.172,4.398c-0.595,2.972-0.13,6.163,1.569,8.953l-0.001,0.001   c0,0,0.11,0.182,0.333,0.587c1.6,2.854,7.844,15.636,7.794,31.852c-0.086,13.579-3.899,29.547-18.873,46.841   c-4.537,5.202-3.997,13.098,1.205,17.638c2.368,2.066,5.296,3.078,8.209,3.078c3.487,0.001,6.956-1.45,9.429-4.283   c16.903-19.275,23.615-39.59,24.822-56.996c2.495,7.069,4.173,15.106,4.169,23.973c0,6.798-0.969,14.131-3.374,22.08   c-2.005,6.607,1.727,13.587,8.334,15.59c1.209,0.366,2.432,0.541,3.633,0.541c5.362,0.001,10.319-3.479,11.957-8.876   c3.118-10.28,4.453-20.139,4.451-29.335c-0.009-22.913-8.176-41.372-16.148-53.943C54.95,116.167,50.187,110.637,47.012,107.299z    M13.861,115.06L13.861,115.06c0.001,0.001,0.002,0.002,0.002,0.003L13.861,115.06z"/><path d="M59.477,99.687c-2.017-1.202-3.817-2.461-5.417-3.74c0.298,2.837,0.489,5.725,0.565,8.658   C56.279,103.026,57.894,101.382,59.477,99.687z"/><path d="M84.965,105.943c3.864,0,7.266-2.808,7.89-6.746c0.692-4.363-2.285-8.463-6.646-9.154   c-14.47-2.357-21.354-7.481-25.235-12.605c-3.86-5.152-4.904-11.192-4.902-16.05c-0.002-2.203,0.216-4.104,0.425-5.389   c0.104-0.643,0.205-1.133,0.274-1.432c0.032-0.149,0.058-0.251,0.068-0.3l-0.001-0.001c1.177-4.251-1.315-8.654-5.567-9.836   c-4.257-1.184-8.667,1.308-9.849,5.565h-0.002c-0.125,0.476-1.342,4.912-1.351,11.392c0.002,7.005,1.465,16.718,8.079,25.614   c6.592,8.924,18.149,16.146,35.555,18.842C84.127,105.91,84.549,105.943,84.965,105.943z"/></g></svg>