<svg xmlns="http://www.w3.org/2000/svg" xmlns:xlink="http://www.w3.org/1999/xlink" version="1.1" x="0px" y="0px" viewBox="0 0 100 125" enable-background="new 0 0 100 100" xml:space="preserve"><g><path d="M34.867,75.781c-3.166,0-5.749,2.582-5.749,5.749c0,3.165,2.583,5.748,5.749,5.748s5.749-2.583,5.749-5.748   C40.616,78.363,38.033,75.781,34.867,75.781z"/><path d="M94.757,34.285c-0.308-1.447-0.953-2.817-1.928-4.062c-0.978-1.25-2.15-2.208-3.476-2.854   c-1.338-0.652-2.813-0.989-4.387-0.989H31.765l-0.51,5.16l0.51-5.208l0.391-5.26c0.017-0.231,0.026-0.43,0.026-0.596   c0-2.044-0.774-3.898-2.063-5.287c-1.284-1.384-3.077-2.289-5.122-2.441c-0.227-0.017-0.425-0.025-0.594-0.025H7.694   c-1.47,0-2.661,1.191-2.661,2.662s1.191,2.662,2.661,2.662h16.709c0.106,0,0.179,0.001,0.22,0.005   c0.647,0.048,1.21,0.329,1.607,0.757c0.392,0.422,0.628,1.007,0.628,1.668c0,0.104-0.001,0.178-0.005,0.221   c-1.239,16.675-3.123,33.319-4.786,49.961c-0.062,0.621,0.122,1.179,0.541,1.642C23.026,72.761,23.563,73,24.186,73h54.152   c2.305,0,4.445-0.772,6.159-2.111c1.709-1.335,2.973-3.229,3.531-5.476l6.627-26.642C95.036,37.246,95.066,35.735,94.757,34.285z    M89.498,37.503l-6.627,26.642c-0.264,1.063-0.851,1.948-1.64,2.564c-0.784,0.613-1.789,0.968-2.894,0.968H30.042   c-0.623,0-1.159-0.238-1.577-0.7c-0.419-0.462-0.603-1.019-0.542-1.639l3.226-32.715l0.09-0.92h53.728   c0.76,0,1.451,0.152,2.058,0.448c0.618,0.301,1.166,0.75,1.626,1.337c0.461,0.591,0.766,1.231,0.908,1.899   C89.7,36.053,89.682,36.767,89.498,37.503z"/><path d="M73.53,75.781c-3.166,0-5.749,2.582-5.749,5.749c0,3.165,2.583,5.748,5.749,5.748s5.748-2.583,5.748-5.748   C79.278,78.363,76.696,75.781,73.53,75.781z"/><path d="M58.106,47.242v-8.011c0.551,0.134,1.036,0.36,1.42,0.67c0.67,0.54,1.009,1.328,1.009,2.343h3.194   c0-1.999-0.761-3.668-2.197-4.828c-0.932-0.752-2.119-1.244-3.426-1.432v-1.521h-3.194v1.657c-3.182,0.711-6.016,3.127-6.016,7.035   c0,4.033,3.088,5.47,6.016,6.431v8.257c-0.685-0.151-1.3-0.418-1.775-0.781c-0.794-0.605-1.196-1.457-1.196-2.532h-3.194   c0,2.065,0.872,3.867,2.455,5.072c1.02,0.777,2.306,1.288,3.711,1.486v1.528h3.194v-1.619c3.319-0.658,6.319-3.076,6.319-7.028   C64.426,49.708,61.046,48.199,58.106,47.242z M54.912,46.196c-1.944-0.743-2.822-1.501-2.822-3.04c0-1.878,1.256-3.141,2.822-3.713   V46.196z M58.106,57.709v-7.083c2.155,0.802,3.125,1.611,3.125,3.344C61.231,56.078,59.707,57.227,58.106,57.709z"/></g></svg>