<svg xmlns="http://www.w3.org/2000/svg" xmlns:xlink="http://www.w3.org/1999/xlink" version="1.1" x="0px" y="0px" viewBox="0 0 48 60" enable-background="new 0 0 48 48" xml:space="preserve"><g><g><path fill="#000000" d="M41.1,33.1H6.9c-0.6,0-1-0.4-1-1v-7.2c0-0.6,0.4-1,1-1h34.2c0.6,0,1,0.4,1,1v7.2    C42.1,32.7,41.7,33.1,41.1,33.1z M7.9,31.1h32.2v-5.2H7.9V31.1z"/><path fill="#000000" d="M38.1,25.9C38.1,25.9,38.1,25.9,38.1,25.9H9.9c-0.3,0-0.6-0.2-0.8-0.4S8.8,24.9,9,24.6l4.7-12.7    c0.1-0.4,0.5-0.7,0.9-0.7h18.8c0.4,0,0.8,0.3,0.9,0.7L39,24.4c0.1,0.2,0.1,0.3,0.1,0.5C39.1,25.5,38.7,25.9,38.1,25.9z M11.3,23.9    h25.3l-4-10.7H15.3L11.3,23.9z"/><path fill="#000000" d="M11.8,36.8c-0.6,0-1-0.4-1-1v-3.4c0-0.6,0.4-1,1-1s1,0.4,1,1v3.4C12.8,36.4,12.4,36.8,11.8,36.8z"/><path fill="#000000" d="M36.2,36.8c-0.6,0-1-0.4-1-1v-3.4c0-0.6,0.4-1,1-1s1,0.4,1,1v3.4C37.2,36.4,36.8,36.8,36.2,36.8z"/><path fill="#000000" d="M13.9,29.5H9.7c-0.6,0-1-0.4-1-1s0.4-1,1-1h4.2c0.6,0,1,0.4,1,1S14.5,29.5,13.9,29.5z"/><path fill="#000000" d="M38.3,29.5h-4.2c-0.6,0-1-0.4-1-1s0.4-1,1-1h4.2c0.6,0,1,0.4,1,1S38.9,29.5,38.3,29.5z"/></g><path fill="#000000" d="M24,48C10.8,48,0,37.2,0,24S10.8,0,24,0s24,10.8,24,24S37.2,48,24,48z M24,2C11.9,2,2,11.9,2,24   s9.9,22,22,22s22-9.9,22-22S36.1,2,24,2z"/><path fill="#000000" d="M9.8,43.1c-0.2,0-0.4-0.1-0.6-0.2c-0.4-0.3-0.5-1-0.2-1.4L37.4,5.3c0.3-0.4,1-0.5,1.4-0.2   c0.4,0.3,0.5,1,0.2,1.4L10.6,42.7C10.4,43,10.1,43.1,9.8,43.1z"/></g></svg>