<svg xmlns="http://www.w3.org/2000/svg" xmlns:xlink="http://www.w3.org/1999/xlink" version="1.1" x="0px" y="0px" viewBox="NaN NaN NaN 125"><g display="none"><path d="M50.009,8.183 L50.32,8.377 C50.599,8.619 50.487,8.479 50.66,8.795 L54.602,19.466 L65.969,19.918 C66.897,19.955 67.278,21.127 66.548,21.702 L57.618,28.749 L60.456,38.829 L70.911,38.414 L74.853,27.743 C75.138,27.117 75.471,27.13 76.079,27.13 C76.66,27.517 76.473,27.285 76.729,27.743 L80.671,38.414 L92.038,38.865 C92.966,38.902 93.347,40.074 92.618,40.65 L83.688,47.696 L86.77,58.645 C87.022,59.539 86.026,60.264 85.253,59.748 L75.791,53.433 L67.432,59.012 L70.934,68.492 L82.3,68.944 C83.228,68.981 83.609,70.153 82.88,70.729 L73.95,77.775 L77.033,88.725 C77.285,89.619 76.288,90.344 75.515,89.828 L66.054,83.512 L56.592,89.828 C55.82,90.344 54.823,89.619 55.074,88.725 L58.157,77.775 L49.739,71.132 L41.321,77.775 L44.404,88.725 C44.655,89.619 43.658,90.344 42.886,89.828 L33.425,83.512 L23.963,89.828 C23.19,90.344 22.193,89.619 22.445,88.725 L25.528,77.775 L16.598,70.729 C15.869,70.153 16.25,68.981 17.178,68.944 L28.544,68.492 L32.008,59.118 L23.49,53.433 L14.029,59.748 C13.257,60.264 12.26,59.539 12.512,58.645 L15.595,47.696 L6.665,40.65 C5.936,40.074 6.316,38.902 7.244,38.865 L18.611,38.414 L22.552,27.743 C22.838,27.117 23.17,27.13 23.778,27.13 C24.36,27.517 24.173,27.285 24.429,27.743 L28.371,38.414 L38.986,38.835 L41.826,28.749 L32.895,21.702 C32.166,21.127 32.547,19.955 33.475,19.918 L44.841,19.466 L48.783,8.795 C48.998,8.253 49.496,8.192 50.009,8.183 z M33.425,61.054 L30.189,69.811 C30.049,70.19 29.695,70.448 29.291,70.464 L19.962,70.835 L27.291,76.619 C27.608,76.869 27.744,77.286 27.634,77.675 L25.104,86.662 L32.87,81.478 C33.206,81.254 33.644,81.254 33.98,81.478 L41.745,86.662 L39.215,77.674 C39.105,77.286 39.241,76.869 39.558,76.619 L46.887,70.835 L37.559,70.464 C37.155,70.448 36.801,70.19 36.661,69.811 L33.425,61.054 z M66.054,61.053 L62.818,69.811 C62.678,70.19 62.324,70.448 61.92,70.464 L52.591,70.835 L59.92,76.618 C60.237,76.869 60.373,77.286 60.263,77.675 L57.733,86.662 L65.499,81.478 C65.835,81.254 66.273,81.254 66.609,81.478 L74.374,86.661 L71.844,77.674 C71.734,77.286 71.87,76.869 72.187,76.619 L79.516,70.835 L70.188,70.464 C69.784,70.448 69.43,70.19 69.29,69.811 L66.054,61.053 z M49.721,34.486 L40.26,40.801 L31.387,47.696 C34.302,57.646 34.218,57.555 34.363,57.822 L38.305,68.492 L49.807,68.944 L61.174,68.492 L64.814,58.64 L67.895,47.696 L59.013,40.688 L49.721,34.486 z M75.791,30.975 L72.556,39.733 C72.416,40.112 72.062,40.37 71.658,40.386 L62.329,40.756 L69.658,46.539 C69.975,46.79 70.111,47.207 70.001,47.596 L67.471,56.582 L75.236,51.399 C75.572,51.175 76.01,51.175 76.346,51.399 L84.112,56.582 L81.582,47.595 C81.472,47.207 81.608,46.79 81.925,46.539 L89.254,40.756 L79.925,40.385 C79.521,40.37 79.167,40.112 79.027,39.733 L75.791,30.975 z M23.491,30.975 L20.256,39.733 C20.116,40.112 19.761,40.37 19.357,40.386 L10.028,40.756 L17.358,46.539 C17.675,46.79 17.81,47.207 17.701,47.596 L15.17,56.582 L22.935,51.399 C23.272,51.175 23.71,51.175 24.046,51.399 L31.811,56.582 L29.281,47.595 C29.172,47.207 29.307,46.79 29.624,46.539 L36.953,40.756 L27.624,40.385 C27.221,40.37 26.866,40.112 26.726,39.733 L23.491,30.975 z M49.722,12.027 L46.486,20.786 C46.346,21.165 45.991,21.422 45.588,21.438 L36.259,21.809 L43.589,27.592 C43.906,27.843 44.041,28.259 43.932,28.648 L41.401,37.635 L49.166,32.452 C49.503,32.228 49.941,32.228 50.277,32.452 L58.042,37.635 L55.512,28.648 C55.403,28.259 55.538,27.843 55.855,27.592 L63.184,21.809 L53.856,21.438 C53.452,21.422 53.097,21.165 52.957,20.786 L49.722,12.027 z" fill="#000000"/></g><g display="none"><path d="M50.009,8.183 L50.32,8.377 C50.599,8.619 50.487,8.479 50.66,8.795 L54.602,19.466 L65.969,19.918 C66.897,19.955 67.278,21.127 66.548,21.702 L57.618,28.749 L60.456,38.829 L70.911,38.414 L74.853,27.743 C75.138,27.117 75.471,27.13 76.079,27.13 C76.66,27.517 76.473,27.285 76.729,27.743 L80.671,38.414 L92.038,38.865 C92.966,38.902 93.347,40.074 92.618,40.65 L83.688,47.696 L86.77,58.645 C87.022,59.539 86.026,60.264 85.253,59.748 L75.791,53.433 L67.432,59.012 L70.934,68.492 L82.3,68.944 C83.228,68.981 83.609,70.153 82.88,70.729 L73.95,77.775 L77.033,88.725 C77.285,89.619 76.288,90.344 75.515,89.828 L66.054,83.512 L56.592,89.828 C55.82,90.344 54.823,89.619 55.074,88.725 L58.157,77.775 L49.739,71.132 L41.321,77.775 L44.404,88.725 C44.655,89.619 43.658,90.344 42.886,89.828 L33.425,83.512 L23.963,89.828 C23.19,90.344 22.193,89.619 22.445,88.725 L25.528,77.775 L16.598,70.729 C15.869,70.153 16.25,68.981 17.178,68.944 L28.544,68.492 L32.008,59.118 L23.49,53.433 L14.029,59.748 C13.257,60.264 12.26,59.539 12.512,58.645 L15.595,47.696 L6.665,40.65 C5.936,40.074 6.316,38.902 7.244,38.865 L18.611,38.414 L22.552,27.743 C22.838,27.117 23.17,27.13 23.778,27.13 C24.36,27.517 24.173,27.285 24.429,27.743 L28.371,38.414 L38.986,38.835 L41.826,28.749 L32.895,21.702 C32.166,21.127 32.547,19.955 33.475,19.918 L44.841,19.466 L48.783,8.795 C48.998,8.253 49.496,8.192 50.009,8.183 z M33.425,61.054 L30.189,69.811 C30.049,70.19 29.695,70.448 29.291,70.464 L19.962,70.835 L27.291,76.619 C27.608,76.869 27.744,77.286 27.634,77.675 L25.104,86.662 L32.87,81.478 C33.206,81.254 33.644,81.254 33.98,81.478 L41.745,86.662 L39.215,77.674 C39.105,77.286 39.241,76.869 39.558,76.619 L46.887,70.835 L37.559,70.464 C37.155,70.448 36.801,70.19 36.661,69.811 L33.425,61.054 z M66.054,61.053 L62.818,69.811 C62.678,70.19 62.324,70.448 61.92,70.464 L52.591,70.835 L59.92,76.618 C60.237,76.869 60.373,77.286 60.263,77.675 L57.733,86.662 L65.499,81.478 C65.835,81.254 66.273,81.254 66.609,81.478 L74.374,86.661 L71.844,77.674 C71.734,77.286 71.87,76.869 72.187,76.619 L79.516,70.835 L70.188,70.464 C69.784,70.448 69.43,70.19 69.29,69.811 L66.054,61.053 z M49.721,34.486 L40.26,40.801 L31.387,47.696 C34.302,57.646 34.218,57.555 34.363,57.822 L38.305,68.492 L49.807,68.944 L61.174,68.492 L64.814,58.64 L67.895,47.696 L59.013,40.688 L49.721,34.486 z M75.791,30.975 L72.556,39.733 C72.416,40.112 72.062,40.37 71.658,40.386 L62.329,40.756 L69.658,46.539 C69.975,46.79 70.111,47.207 70.001,47.596 L67.471,56.582 L75.236,51.399 C75.572,51.175 76.01,51.175 76.346,51.399 L84.112,56.582 L81.582,47.595 C81.472,47.207 81.608,46.79 81.925,46.539 L89.254,40.756 L79.925,40.385 C79.521,40.37 79.167,40.112 79.027,39.733 L75.791,30.975 z M23.491,30.975 L20.256,39.733 C20.116,40.112 19.761,40.37 19.357,40.386 L10.028,40.756 L17.358,46.539 C17.675,46.79 17.81,47.207 17.701,47.596 L15.17,56.582 L22.935,51.399 C23.272,51.175 23.71,51.175 24.046,51.399 L31.811,56.582 L29.281,47.595 C29.172,47.207 29.307,46.79 29.624,46.539 L36.953,40.756 L27.624,40.385 C27.221,40.37 26.866,40.112 26.726,39.733 L23.491,30.975 z" fill="#000000"/></g><g display="none"><path d="M50.009,8.183 L50.32,8.377 C50.599,8.619 50.487,8.479 50.66,8.795 L54.602,19.466 L65.969,19.918 C66.897,19.955 67.278,21.127 66.548,21.702 L57.618,28.749 L60.456,38.829 L70.911,38.414 L74.853,27.743 C75.138,27.117 75.471,27.13 76.079,27.13 C76.66,27.517 76.473,27.285 76.729,27.743 L80.671,38.414 L92.038,38.865 C92.966,38.902 93.347,40.074 92.618,40.65 L83.688,47.696 L86.77,58.645 C87.022,59.539 86.026,60.264 85.253,59.748 L75.791,53.433 L67.432,59.012 L70.934,68.492 L82.3,68.944 C83.228,68.981 83.609,70.153 82.88,70.729 L73.95,77.775 L77.033,88.725 C77.285,89.619 76.288,90.344 75.515,89.828 L66.054,83.512 L56.592,89.828 C55.82,90.344 54.823,89.619 55.074,88.725 L58.157,77.775 L49.739,71.132 L41.321,77.775 L44.404,88.725 C44.655,89.619 43.658,90.344 42.886,89.828 L33.425,83.512 L23.963,89.828 C23.19,90.344 22.193,89.619 22.445,88.725 L25.528,77.775 L16.598,70.729 C15.869,70.153 16.25,68.981 17.178,68.944 L28.544,68.492 L32.008,59.118 L23.49,53.433 L14.029,59.748 C13.257,60.264 12.26,59.539 12.512,58.645 L15.595,47.696 L6.665,40.65 C5.936,40.074 6.316,38.902 7.244,38.865 L18.611,38.414 L22.552,27.743 C22.838,27.117 23.17,27.13 23.778,27.13 C24.36,27.517 24.173,27.285 24.429,27.743 L28.371,38.414 L38.986,38.835 L41.826,28.749 L32.895,21.702 C32.166,21.127 32.547,19.955 33.475,19.918 L44.841,19.466 L48.783,8.795 C48.998,8.253 49.496,8.192 50.009,8.183 z M33.425,61.054 L30.189,69.811 C30.049,70.19 29.695,70.448 29.291,70.464 L19.962,70.835 L27.291,76.619 C27.608,76.869 27.744,77.286 27.634,77.675 L25.104,86.662 L32.87,81.478 C33.206,81.254 33.644,81.254 33.98,81.478 L41.745,86.662 L39.215,77.674 C39.105,77.286 39.241,76.869 39.558,76.619 L46.887,70.835 L37.559,70.464 C37.155,70.448 36.801,70.19 36.661,69.811 L33.425,61.054 z M66.054,61.053 L62.818,69.811 C62.678,70.19 62.324,70.448 61.92,70.464 L52.591,70.835 L59.92,76.618 C60.237,76.869 60.373,77.286 60.263,77.675 L57.733,86.662 L65.499,81.478 C65.835,81.254 66.273,81.254 66.609,81.478 L74.374,86.661 L71.844,77.674 C71.734,77.286 71.87,76.869 72.187,76.619 L79.516,70.835 L70.188,70.464 C69.784,70.448 69.43,70.19 69.29,69.811 L66.054,61.053 z M49.721,34.486 L40.26,40.801 L31.387,47.696 C34.302,57.646 34.218,57.555 34.363,57.822 L38.305,68.492 L49.807,68.944 L61.174,68.492 L64.814,58.64 L67.895,47.696 L59.013,40.688 L49.721,34.486 z M23.491,30.975 L20.256,39.733 C20.116,40.112 19.761,40.37 19.357,40.386 L10.028,40.756 L17.358,46.539 C17.675,46.79 17.81,47.207 17.701,47.596 L15.17,56.582 L22.935,51.399 C23.272,51.175 23.71,51.175 24.046,51.399 L31.811,56.582 L29.281,47.595 C29.172,47.207 29.307,46.79 29.624,46.539 L36.953,40.756 L27.624,40.385 C27.221,40.37 26.866,40.112 26.726,39.733 L23.491,30.975 z" fill="#000000"/></g><g display="none"><path d="M50.009,8.183 L50.32,8.377 C50.599,8.619 50.487,8.479 50.66,8.795 L54.602,19.466 L65.969,19.918 C66.897,19.955 67.278,21.127 66.548,21.702 L57.618,28.749 L60.456,38.829 L70.911,38.414 L74.853,27.743 C75.138,27.117 75.471,27.13 76.079,27.13 C76.66,27.517 76.473,27.285 76.729,27.743 L80.671,38.414 L92.038,38.865 C92.966,38.902 93.347,40.074 92.618,40.65 L83.688,47.696 L86.77,58.645 C87.022,59.539 86.026,60.264 85.253,59.748 L75.791,53.433 L67.432,59.012 L70.934,68.492 L82.3,68.944 C83.228,68.981 83.609,70.153 82.88,70.729 L73.95,77.775 L77.033,88.725 C77.285,89.619 76.288,90.344 75.515,89.828 L66.054,83.512 L56.592,89.828 C55.82,90.344 54.823,89.619 55.074,88.725 L58.157,77.775 L49.739,71.132 L41.321,77.775 L44.404,88.725 C44.655,89.619 43.658,90.344 42.886,89.828 L33.425,83.512 L23.963,89.828 C23.19,90.344 22.193,89.619 22.445,88.725 L25.528,77.775 L16.598,70.729 C15.869,70.153 16.25,68.981 17.178,68.944 L28.544,68.492 L32.008,59.118 L23.49,53.433 L14.029,59.748 C13.257,60.264 12.26,59.539 12.512,58.645 L15.595,47.696 L6.665,40.65 C5.936,40.074 6.316,38.902 7.244,38.865 L18.611,38.414 L22.552,27.743 C22.838,27.117 23.17,27.13 23.778,27.13 C24.36,27.517 24.173,27.285 24.429,27.743 L28.371,38.414 L38.986,38.835 L41.826,28.749 L32.895,21.702 C32.166,21.127 32.547,19.955 33.475,19.918 L44.841,19.466 L48.783,8.795 C48.998,8.253 49.496,8.192 50.009,8.183 z M33.425,61.054 L30.189,69.811 C30.049,70.19 29.695,70.448 29.291,70.464 L19.962,70.835 L27.291,76.619 C27.608,76.869 27.744,77.286 27.634,77.675 L25.104,86.662 L32.87,81.478 C33.206,81.254 33.644,81.254 33.98,81.478 L41.745,86.662 L39.215,77.674 C39.105,77.286 39.241,76.869 39.558,76.619 L46.887,70.835 L37.559,70.464 C37.155,70.448 36.801,70.19 36.661,69.811 L33.425,61.054 z M49.721,34.486 L40.26,40.801 L31.387,47.696 C34.302,57.646 34.218,57.555 34.363,57.822 L38.305,68.492 L49.807,68.944 L61.174,68.492 L64.814,58.64 L67.895,47.696 L59.013,40.688 L49.721,34.486 z M23.491,30.975 L20.256,39.733 C20.116,40.112 19.761,40.37 19.357,40.386 L10.028,40.756 L17.358,46.539 C17.675,46.79 17.81,47.207 17.701,47.596 L15.17,56.582 L22.935,51.399 C23.272,51.175 23.71,51.175 24.046,51.399 L31.811,56.582 L29.281,47.595 C29.172,47.207 29.307,46.79 29.624,46.539 L36.953,40.756 L27.624,40.385 C27.221,40.37 26.866,40.112 26.726,39.733 L23.491,30.975 z" fill="#000000"/></g><g display="none"><path d="M50.009,8.183 L50.32,8.377 C50.599,8.619 50.487,8.479 50.66,8.795 L54.602,19.466 L65.969,19.918 C66.897,19.955 67.278,21.127 66.548,21.702 L57.618,28.749 L60.456,38.829 L70.911,38.414 L74.853,27.743 C75.138,27.117 75.471,27.13 76.079,27.13 C76.66,27.517 76.473,27.285 76.729,27.743 L80.671,38.414 L92.038,38.865 C92.966,38.902 93.347,40.074 92.618,40.65 L83.688,47.696 L86.77,58.645 C87.022,59.539 86.026,60.264 85.253,59.748 L75.791,53.433 L67.432,59.012 L70.934,68.492 L82.3,68.944 C83.228,68.981 83.609,70.153 82.88,70.729 L73.95,77.775 L77.033,88.725 C77.285,89.619 76.288,90.344 75.515,89.828 L66.054,83.512 L56.592,89.828 C55.82,90.344 54.823,89.619 55.074,88.725 L58.157,77.775 L49.739,71.132 L41.321,77.775 L44.404,88.725 C44.655,89.619 43.658,90.344 42.886,89.828 L33.425,83.512 L23.963,89.828 C23.19,90.344 22.193,89.619 22.445,88.725 L25.528,77.775 L16.598,70.729 C15.869,70.153 16.25,68.981 17.178,68.944 L28.544,68.492 L32.008,59.118 L23.49,53.433 L14.029,59.748 C13.257,60.264 12.26,59.539 12.512,58.645 L15.595,47.696 L6.665,40.65 C5.936,40.074 6.316,38.902 7.244,38.865 L18.611,38.414 L22.552,27.743 C22.838,27.117 23.17,27.13 23.778,27.13 C24.36,27.517 24.173,27.285 24.429,27.743 L28.371,38.414 L38.986,38.835 L41.826,28.749 L32.895,21.702 C32.166,21.127 32.547,19.955 33.475,19.918 L44.841,19.466 L48.783,8.795 C48.998,8.253 49.496,8.192 50.009,8.183 z M49.721,34.486 L40.26,40.801 L31.387,47.696 C34.302,57.646 34.218,57.555 34.363,57.822 L38.305,68.492 L49.807,68.944 L61.174,68.492 L64.814,58.64 L67.895,47.696 L59.013,40.688 L49.721,34.486 z M23.491,30.975 L20.256,39.733 C20.116,40.112 19.761,40.37 19.357,40.386 L10.028,40.756 L17.358,46.539 C17.675,46.79 17.81,47.207 17.701,47.596 L15.17,56.582 L22.935,51.399 C23.272,51.175 23.71,51.175 24.046,51.399 L31.811,56.582 L29.281,47.595 C29.172,47.207 29.307,46.79 29.624,46.539 L36.953,40.756 L27.624,40.385 C27.221,40.37 26.866,40.112 26.726,39.733 L23.491,30.975 z" fill="#000000"/></g><g display="none"><path d="M50.009,8.183 L50.32,8.377 C50.599,8.619 50.487,8.479 50.66,8.795 L54.602,19.466 L65.969,19.918 C66.897,19.955 67.278,21.127 66.548,21.702 L57.618,28.749 L60.456,38.829 L70.911,38.414 L74.853,27.743 C75.138,27.117 75.471,27.13 76.079,27.13 C76.66,27.517 76.473,27.285 76.729,27.743 L80.671,38.414 L92.038,38.865 C92.966,38.902 93.347,40.074 92.618,40.65 L83.688,47.696 L86.77,58.645 C87.022,59.539 86.026,60.264 85.253,59.748 L75.791,53.433 L67.432,59.012 L70.934,68.492 L82.3,68.944 C83.228,68.981 83.609,70.153 82.88,70.729 L73.95,77.775 L77.033,88.725 C77.285,89.619 76.288,90.344 75.515,89.828 L66.054,83.512 L56.592,89.828 C55.82,90.344 54.823,89.619 55.074,88.725 L58.157,77.775 L49.739,71.132 L41.321,77.775 L44.404,88.725 C44.655,89.619 43.658,90.344 42.886,89.828 L33.425,83.512 L23.963,89.828 C23.19,90.344 22.193,89.619 22.445,88.725 L25.528,77.775 L16.598,70.729 C15.869,70.153 16.25,68.981 17.178,68.944 L28.544,68.492 L32.008,59.118 L23.49,53.433 L14.029,59.748 C13.257,60.264 12.26,59.539 12.512,58.645 L15.595,47.696 L6.665,40.65 C5.936,40.074 6.316,38.902 7.244,38.865 L18.611,38.414 L22.552,27.743 C22.838,27.117 23.17,27.13 23.778,27.13 C24.36,27.517 24.173,27.285 24.429,27.743 L28.371,38.414 L38.986,38.835 L41.826,28.749 L32.895,21.702 C32.166,21.127 32.547,19.955 33.475,19.918 L44.841,19.466 L48.783,8.795 C48.998,8.253 49.496,8.192 50.009,8.183 z M49.721,34.486 L40.26,40.801 L31.387,47.696 C34.302,57.646 34.218,57.555 34.363,57.822 L38.305,68.492 L49.807,68.944 L61.174,68.492 L64.814,58.64 L67.895,47.696 L59.013,40.688 L49.721,34.486 z M23.491,30.975 L23.469,51.156 C23.469,51.141 23.828,51.297 24.046,51.399 L31.811,56.582 L29.281,47.595 C29.172,47.207 29.307,46.79 29.624,46.539 L36.953,40.756 L27.624,40.385 C27.221,40.37 26.866,40.112 26.726,39.733 L23.491,30.975 z" fill="#000000"/></g><g display="none"><path d="M50.009,8.183 L50.32,8.377 C50.599,8.619 50.487,8.479 50.66,8.795 L54.602,19.466 L65.969,19.918 C66.897,19.955 67.278,21.127 66.548,21.702 L57.618,28.749 L60.456,38.829 L70.911,38.414 L74.853,27.743 C75.138,27.117 75.471,27.13 76.079,27.13 C76.66,27.517 76.473,27.285 76.729,27.743 L80.671,38.414 L92.038,38.865 C92.966,38.902 93.347,40.074 92.618,40.65 L83.688,47.696 L86.77,58.645 C87.022,59.539 86.026,60.264 85.253,59.748 L75.791,53.433 L67.432,59.012 L70.934,68.492 L82.3,68.944 C83.228,68.981 83.609,70.153 82.88,70.729 L73.95,77.775 L77.033,88.725 C77.285,89.619 76.288,90.344 75.515,89.828 L66.054,83.512 L56.592,89.828 C55.82,90.344 54.823,89.619 55.074,88.725 L58.157,77.775 L49.739,71.132 L41.321,77.775 L44.404,88.725 C44.655,89.619 43.658,90.344 42.886,89.828 L33.425,83.512 L23.963,89.828 C23.19,90.344 22.193,89.619 22.445,88.725 L25.528,77.775 L16.598,70.729 C15.869,70.153 16.25,68.981 17.178,68.944 L28.544,68.492 L32.008,59.118 L23.49,53.433 L14.029,59.748 C13.257,60.264 12.26,59.539 12.512,58.645 L15.595,47.696 L6.665,40.65 C5.936,40.074 6.316,38.902 7.244,38.865 L18.611,38.414 L22.552,27.743 C22.838,27.117 23.17,27.13 23.778,27.13 C24.36,27.517 24.173,27.285 24.429,27.743 L28.371,38.414 L38.986,38.835 L41.826,28.749 L32.895,21.702 C32.166,21.127 32.547,19.955 33.475,19.918 L44.841,19.466 L48.783,8.795 C48.998,8.253 49.496,8.192 50.009,8.183 z M49.721,34.486 L40.26,40.801 L31.387,47.696 C34.302,57.646 34.218,57.555 34.363,57.822 L38.305,68.492 L49.807,68.944 L61.174,68.492 L64.814,58.64 L67.895,47.696 L59.013,40.688 L49.721,34.486 z" fill="#000000"/></g><g display="none"><path d="M42.905,3.686 C43.276,3.679 43.64,3.783 43.953,3.985 C44.017,4.026 44.518,4.306 44.719,4.48 C45.13,4.836 45.356,5.324 45.425,5.562 C45.504,5.733 45.558,5.915 45.584,6.102 L55.752,78.202 L60.632,55.954 C61.234,53.21 64.974,52.903 66.004,55.512 C66.181,55.961 66.181,55.961 66.326,56.327 C66.718,57.322 67.111,58.317 67.504,59.311 C67.897,58.317 68.29,57.322 68.682,56.327 C68.682,56.327 68.682,56.327 68.682,56.327 C68.827,55.961 68.827,55.961 69.004,55.512 C69.908,53.224 73.057,53.091 74.145,55.296 C74.57,56.157 74.341,55.693 74.831,56.686 C75.028,57.088 75.227,57.488 75.425,57.889 L94.275,57.889 C95.833,57.889 97.095,59.168 97.095,60.746 C97.095,62.324 95.832,63.603 94.275,63.603 L73.682,63.603 C72.601,63.449 73.127,63.632 72.122,63.002 C71.563,64.418 71.004,65.834 70.444,67.25 L70.444,67.251 C70.3,67.617 70.3,67.617 70.123,68.065 C69.177,70.46 65.831,70.46 64.885,68.065 C64.737,67.69 64.816,67.889 64.65,67.469 C64.486,67.054 64.322,66.638 64.158,66.223 L57.901,94.744 C57.221,97.846 52.8,97.674 52.356,94.528 L42.483,24.514 L35.272,65.42 C34.795,68.128 31.188,68.656 29.973,66.196 L28.275,62.754 C26.873,63.632 27.553,63.427 26.318,63.603 L5.725,63.603 C4.168,63.603 2.905,62.324 2.905,60.746 C2.905,59.168 4.167,57.889 5.725,57.889 L24.575,57.889 C24.719,57.598 24.635,57.767 24.825,57.382 C25.477,56.062 25.477,56.062 25.694,55.622 C25.766,55.475 25.766,55.475 25.855,55.296 C26.894,53.19 29.861,53.19 30.9,55.296 L31.215,55.934 L40.016,6.004 C40.036,5.893 40.065,5.783 40.104,5.677 C40.126,5.617 40.19,5.431 40.205,5.39 C40.314,5.095 40.451,4.846 40.705,4.589 C40.879,4.414 41.3,4.129 41.35,4.09 C41.669,3.841 42.059,3.702 42.461,3.694 L42.905,3.686 z M42.941,5.59 L42.497,5.599 C41.898,6.066 42.068,5.79 41.867,6.339 L32.069,61.923 L29.218,56.148 C28.872,55.446 27.883,55.446 27.536,56.148 C27.279,56.669 27.279,56.669 26.507,58.234 C26.25,58.754 25.994,59.274 25.737,59.793 L5.725,59.793 C5.206,59.794 4.785,60.22 4.785,60.746 C4.785,61.272 5.206,61.698 5.725,61.698 L26.318,61.698 C26.674,61.698 27,61.494 27.159,61.172 C27.416,60.65 27.416,60.65 28.189,59.086 L28.377,58.703 L31.655,65.344 C32.06,66.164 33.262,65.988 33.421,65.086 L42.689,12.509 L54.217,94.259 C54.365,95.307 55.839,95.365 56.066,94.33 L63.643,59.79 C64.231,61.28 63.922,60.496 64.572,62.143 C66.116,66.054 66.116,66.054 66.631,67.358 C66.946,68.156 68.062,68.156 68.377,67.358 C68.892,66.054 68.892,66.054 70.436,62.143 C70.863,61.061 71.291,59.978 71.718,58.896 L71.811,59.086 C72.584,60.65 72.584,60.65 72.841,61.172 C73,61.494 73.326,61.698 73.682,61.698 L94.275,61.698 C94.794,61.698 95.215,61.272 95.215,60.746 C95.215,60.22 94.794,59.794 94.275,59.793 L74.263,59.793 C73.406,58.058 74.006,59.274 72.463,56.148 C72.101,55.413 71.051,55.457 70.75,56.22 C70.235,57.524 70.235,57.524 68.69,61.435 C67.954,63.299 68.35,62.298 67.504,64.44 C66.658,62.298 67.054,63.299 66.317,61.435 C64.773,57.524 64.773,57.524 64.258,56.22 C63.915,55.35 62.668,55.453 62.468,56.367 L55.349,88.816 L43.723,6.372 C43.44,5.761 43.661,6.056 42.941,5.59 z" fill="#000000"/></g><g display="none"><path d="M45.04,68.534 C48.206,68.479 50.818,71.001 50.873,74.167 C50.928,77.333 48.406,79.944 45.24,79.999 C42.075,80.054 39.456,77.139 39.401,73.952 C39.345,70.785 41.848,68.59 45.04,68.534 z M45.075,70.534 C43.014,70.57 41.364,71.856 41.4,73.917 C41.436,75.979 43.144,78.036 45.206,77.999 C47.267,77.964 48.909,76.263 48.873,74.202 C48.837,72.14 47.137,70.498 45.075,70.534 z" fill="#000000"/><path d="M53.1,74.767 L68.967,74.767 C68.967,74.767 68.967,67.3 76.433,67.3 C83.9,67.3 83.9,74.767 83.9,74.767 C83.9,74.767 95.1,73.833 95.1,71.033 C95.1,68.233 91.367,58.9 68.967,58.9 C68.967,58.9 62.433,52.367 59.633,50.5 C56.833,48.633 25.1,54.233 25.1,67.3 C25.1,74.767 38.166,74.767 38.166,74.767 C38.166,74.767 38.166,67.3 45.633,67.3 C53.1,67.3 53.1,74.767 53.1,74.767 z" fill-opacity="1.0" stroke="#000000" stroke-width="2"/><path d="M75.84,68.534 C79.006,68.479 81.618,71.001 81.673,74.167 C81.728,77.333 79.207,79.944 76.04,79.999 C72.875,80.054 70.256,77.139 70.201,73.952 C70.145,70.785 72.648,68.59 75.84,68.534 z M75.875,70.534 C73.814,70.57 72.164,71.856 72.2,73.917 C72.236,75.979 73.944,78.036 76.006,77.999 C78.067,77.964 79.709,76.263 79.673,74.202 C79.637,72.14 77.937,70.498 75.875,70.534 z" fill="#000000"/><path d="M57.992,54.243 C60.695,56.204 64.3,60.126 64.3,60.126 C64.3,60.126 38.166,62.088 38.166,59.146 C38.166,56.204 56.189,53.262 57.992,54.243 z" fill-opacity="1.0" stroke="#000000" stroke-width="2" stroke-linecap="round" stroke-linejoin="round"/><path d="M10.5,53.5 L30.1,53.5" fill-opacity="1.0" stroke="#000000" stroke-width="2" stroke-linecap="round"/><path d="M6.5,63.5 L21.5,63.5" fill-opacity="1.0" stroke="#000000" stroke-width="2" stroke-linecap="round"/><path d="M12.233,72.5 L22.5,72.5" fill-opacity="1.0" stroke="#000000" stroke-width="2" stroke-linecap="round"/></g><g><path d="M57.327,49.168 C59.509,49.387 58.605,49.149 60.088,49.668 C61.068,50.321 62.485,51.506 64.248,53.109 C64.466,53.307 64.688,53.511 64.913,53.719 C65.974,54.698 67.075,55.746 68.151,56.794 C68.528,57.16 68.875,57.501 69.185,57.807 L69.289,57.91 C76.851,57.88 84.449,59.002 90.917,63.105 C94.29,65.529 96,68.629 96,71.033 C96,73.023 93.682,74.049 89.685,74.8 C88.451,75.031 87.136,75.211 85.821,75.347 C85.362,75.394 84.935,75.433 84.551,75.463 C84.319,75.481 84.152,75.493 84.06,75.498 L82.989,75.563 L83,74.493 C83.001,74.315 82.975,73.984 82.896,73.556 C82.763,72.848 82.524,72.144 82.156,71.493 C81.094,69.619 79.17,68.5 76,68.5 C73.335,68.5 71.676,69.634 70.703,71.581 C70.352,72.282 70.118,73.044 69.981,73.807 C69.9,74.262 69.87,74.608 69.867,74.785 L69.848,75.783 L68.85,75.767 L52.983,75.5 L52,75.483 L52,74.5 C52,74.338 51.975,74.013 51.897,73.584 C51.767,72.862 51.532,72.141 51.171,71.477 C50.156,69.607 48.353,68.5 45.4,68.5 C42.553,68.5 40.824,69.639 39.853,71.581 C39.51,72.266 39.288,73.01 39.164,73.757 C39.09,74.212 39.066,74.565 39.067,74.76 L39.067,74.757 L39.076,75.767 L38.067,75.767 C37.951,75.767 37.746,75.763 37.464,75.751 C37,75.732 36.485,75.698 35.93,75.646 C34.342,75.494 32.753,75.222 31.259,74.795 C26.796,73.52 24,71.123 24,67.3 C24,60.915 30.555,55.848 40.896,52.353 C45.904,50.629 51.107,49.582 56.379,49.178 L57.327,49.168 z M57.753,51.151 C56.192,51.117 54.639,51.297 53.093,51.491 C49.496,51.989 45.353,52.958 41.537,54.247 C31.942,57.491 26,62.084 26,67.3 C26,70.01 28.104,71.814 31.808,72.872 C33.172,73.262 34.645,73.514 36.12,73.655 C36.961,73.723 36.617,73.702 37.15,73.731 C37.679,71.414 37.333,72.416 38.064,70.686 C39.364,68.086 41.772,66.5 45.4,66.5 C49.097,66.5 51.569,68.018 52.929,70.523 C53.707,72.216 53.338,71.234 53.911,73.515 L67.97,73.751 L68.013,73.455 C68.181,72.515 68.47,71.574 68.914,70.686 C70.211,68.091 72.54,66.5 76,66.5 C79.89,66.5 82.479,68.006 83.896,70.507 C84.692,72.171 84.32,71.212 84.892,73.427 C85.19,73.401 84.949,73.422 85.616,73.357 C86.88,73.227 88.143,73.054 89.315,72.834 C92.194,72.293 94,71.494 94,71.033 C94,69.296 92.617,66.79 89.75,64.729 C85.527,61.693 78.695,59.9 68.867,59.9 L68.452,59.9 L68.16,59.607 C68.092,59.539 67.962,59.41 67.779,59.229 C67.473,58.927 67.13,58.59 66.757,58.227 C65.692,57.191 64.604,56.155 63.557,55.189 C63.335,54.984 63.117,54.784 62.903,54.589 C61.21,53.05 59.851,51.913 58.979,51.332 C58.427,51.132 58.822,51.252 57.753,51.151 z" fill="#000000"/><path d="M55.233,53.075 C57.568,53.181 56.677,52.96 57.97,53.364 L58.079,53.433 C58.619,53.825 59.209,54.302 59.842,54.853 C60.22,55.182 60.61,55.535 61.011,55.908 C61.842,56.684 62.68,57.512 63.483,58.34 C63.764,58.63 64.021,58.9 64.249,59.141 C64.386,59.287 64.484,59.392 64.536,59.45 C65.102,60.065 64.708,61.061 63.875,61.123 C63.807,61.129 63.677,61.138 63.489,61.151 C63.178,61.173 62.819,61.198 62.418,61.224 C61.271,61.3 60.009,61.375 58.671,61.445 C55.947,61.588 53.264,61.692 50.752,61.739 C41.171,61.919 36.666,61.496 36.666,59.146 C36.666,57.025 40.456,55.538 46.7,54.244 C49.508,53.594 52.368,53.312 55.233,53.075 z M56.609,55.04 C53.408,55.029 50.239,55.598 47.106,56.202 C44.232,56.801 41.347,57.523 38.791,58.967 L39.093,59.08 C39.7,59.273 40.632,59.431 41.843,59.544 C44.044,59.751 47.074,59.808 50.714,59.739 C53.202,59.693 55.863,59.59 58.566,59.448 C60.862,59.32 59.854,59.38 61.59,59.272 C60.462,58.134 61.106,58.772 59.647,57.371 C59.262,57.012 58.889,56.675 58.529,56.362 C57.455,55.46 57.972,55.872 56.987,55.116 L56.609,55.04 z" fill="#000000"/><path d="M29.6,52.5 C30.152,52.5 30.6,52.948 30.6,53.5 C30.6,54.052 30.152,54.5 29.6,54.5 L10,54.5 C9.448,54.5 9,54.052 9,53.5 C9,52.948 9.448,52.5 10,52.5 L29.6,52.5 z" fill="#000000"/><path d="M21,62.5 C21.552,62.5 22,62.948 22,63.5 C22,64.052 21.552,64.5 21,64.5 L6,64.5 C5.448,64.5 5,64.052 5,63.5 C5,62.948 5.448,62.5 6,62.5 L21,62.5 z" fill="#000000"/><path d="M22,71.5 C22.552,71.5 23,71.948 23,72.5 C23,73.052 22.552,73.5 22,73.5 L11.733,73.5 C11.181,73.5 10.733,73.052 10.733,72.5 C10.733,71.948 11.181,71.5 11.733,71.5 L22,71.5 z" fill="#000000"/><path d="M45.405,69.501 C48.438,69.448 50.94,71.864 50.993,74.897 C51.046,77.93 48.63,80.431 45.597,80.484 C42.612,80.536 40.055,77.688 40.001,74.589 C39.949,71.611 42.293,69.555 45.405,69.501 z M45.44,71.5 C43.366,71.537 41.969,72.761 42,74.554 C42.036,76.607 43.75,78.516 45.562,78.485 C47.491,78.451 49.027,76.86 48.993,74.932 C48.96,73.003 47.369,71.467 45.44,71.5 z" fill="#000000"/><path d="M76.405,69.501 C79.438,69.448 81.94,71.864 81.993,74.897 C82.046,77.93 79.63,80.431 76.597,80.484 C73.612,80.536 71.055,77.688 71.001,74.589 C70.949,71.611 73.293,69.555 76.405,69.501 z M76.44,71.5 C74.366,71.537 72.969,72.761 73.001,74.554 C73.036,76.607 74.75,78.516 76.562,78.485 C78.491,78.451 80.027,76.86 79.993,74.932 C79.96,73.003 78.369,71.467 76.44,71.5 z" fill="#000000"/></g></svg>